#N canvas 840 23 840 492 12;
#X obj 96 86 drip;
#X obj 96 110 mod 12;
#X floatatom 96 136 5 0 0 0 - - -;
#X obj 96 165 t f f;
#X obj 128 207 pack f f;
#X obj 129 292 print;
#X obj 129 265 coll chain;
#C restore;
#X msg 129 238 merge \$1 \$2;
#X msg 96 45 32 35 45 55 31 39 8 8 70 72 73 44 85 68 61 74 76 29 9
10 5 58 44 41 52 53 66 55 54 41 52 65 68 73 34 31 42 37;
#X msg 14 231 open;
#X msg 67 229 clear;
#X connect 0 0 1 0;
#X connect 1 0 2 0;
#X connect 2 0 3 0;
#X connect 3 0 4 1;
#X connect 3 1 4 0;
#X connect 4 0 7 0;
#X connect 6 0 5 0;
#X connect 7 0 6 0;
#X connect 8 0 0 0;
#X connect 9 0 6 0;
#X connect 10 0 6 0;
