#N canvas 840 23 840 1005 12;
#X floatatom 85 378 5 0 0 0 - - -;
#X obj 85 409 send this;
#X obj 86 441 receive this;
#X floatatom 86 465 5 0 0 0 - - -;
#X text 168 375 you can also have nice wireless connection like this
;
#X obj 385 164 catch~ out;
#X obj 393 488 send~ in;
#X obj 393 516 receive~ in;
#X obj 425 379 r this;
#X obj 481 380 r this;
#X obj 534 379 r this;
#X floatatom 424 404 5 0 0 0 - - -;
#X floatatom 481 406 5 0 0 0 - - -;
#X floatatom 536 407 5 0 0 0 - - -;
#X text 380 435 you can have as many receieve as you want;
#X floatatom 513 162 5 0 0 0 - - -;
#X obj 513 209 line~;
#X msg 513 185 \$1 20;
#X obj 429 270 dac~;
#X obj 433 235 *~, f 4;
#X msg 513 138 0.5;
#X obj 513 113 loadbang;
#X obj 166 118 sinegen 1 60 90;
#X obj 164 166 sinegen 2 67 80;
#X obj 165 206 sinegen 3 72 95;
#X obj 34 120 pack f f;
#X floatatom 34 91 5 0 0 0 - - -;
#X msg 87 46 1;
#X msg 87 70 2;
#X msg 87 95 3;
#X obj 34 176 s freq;
#X msg 34 148 \$2 \$1;
#X obj 40 249 pack f f;
#X floatatom 40 220 5 0 0 0 - - -;
#X msg 93 175 1;
#X msg 93 199 2;
#X msg 93 224 3;
#X msg 40 277 \$2 \$1;
#X obj 40 305 s amp;
#X connect 0 0 1 0;
#X connect 2 0 3 0;
#X connect 5 0 19 0;
#X connect 8 0 11 0;
#X connect 9 0 12 0;
#X connect 10 0 13 0;
#X connect 15 0 17 0;
#X connect 16 0 19 1;
#X connect 17 0 16 0;
#X connect 19 0 18 0;
#X connect 19 0 18 1;
#X connect 20 0 15 0;
#X connect 21 0 20 0;
#X connect 25 0 31 0;
#X connect 26 0 25 0;
#X connect 27 0 28 0;
#X connect 28 0 29 0;
#X connect 29 0 25 1;
#X connect 31 0 30 0;
#X connect 32 0 37 0;
#X connect 33 0 32 0;
#X connect 34 0 35 0;
#X connect 35 0 36 0;
#X connect 36 0 32 1;
#X connect 37 0 38 0;
