#N canvas 400 401 980 520 12;
#X floatatom 305 176 5 0 0 0 - - -;
#X obj 296 79 metro 500;
#X obj 306 44 tgl 15 0 empty empty empty 17 7 0 10 -262144 -1 -1 1
1;
#X obj 305 150 random 60;
#X floatatom 173 170 5 0 0 0 - - -;
#X text 346 179 new note;
#X text 211 171 list index;
#X obj 375 275 spigot;
#X floatatom 438 200 5 0 0 0 - - -;
#X obj 438 126 random 100;
#X obj 438 150 / 100;
#X floatatom 283 377 5 0 0 0 - - -;
#X obj 260 298 spigot;
#X obj 438 222 > 0;
#X obj 301 272 < 0;
#X obj 438 176 - 0.95;
#X obj 307 443 cyclone/coll letters;
#C restore;
#X msg 391 412 clear;
#X obj 307 489 print;
#X msg 287 407 \$1;
#X obj 173 144 random 12;
#X msg 417 337 1 a \, 2 b \, 3 c \, 4 d \, 5 e \, 6 f \, 7 g \, 8 h
\, 9 i \, 10 j \, 11 k \, 12 l, f 64;
#X connect 0 0 7 0;
#X connect 1 0 3 0;
#X connect 1 0 9 0;
#X connect 1 0 20 0;
#X connect 2 0 1 0;
#X connect 3 0 0 0;
#X connect 4 0 12 0;
#X connect 7 0 11 0;
#X connect 8 0 13 0;
#X connect 8 0 14 0;
#X connect 9 0 10 0;
#X connect 10 0 15 0;
#X connect 11 0 19 0;
#X connect 12 0 11 0;
#X connect 13 0 7 1;
#X connect 14 0 12 1;
#X connect 15 0 8 0;
#X connect 16 0 18 0;
#X connect 17 0 16 0;
#X connect 19 0 16 0;
#X connect 20 0 4 0;
#X connect 21 0 16 0;
