#N canvas 180 103 840 1005 12;
#X declare -path maxlib;
#X obj 332 52 metro 500;
#X obj 332 30 tgl 15 0 empty empty empty 17 7 0 10 -262144 -1 -1 0
1;
#X obj 332 75 bng 15 250 50 0 empty empty empty 17 7 0 10 -262144 -1
-1;
#X obj 371 414 print;
#X obj 354 382 pack;
#X obj 232 383 noteout 1;
#X floatatom 392 29 5 0 0 0 - - -;
#X obj 334 215 + 60;
#X floatatom 352 241 5 0 0 0 - - -;
#X obj 335 324 makenote 100 800;
#X floatatom 602 160 5 0 0 0 - - -;
#X obj 602 188 t f f;
#X obj 602 304 mod 12;
#X floatatom 602 328 5 0 0 0 - - -;
#X obj 635 249 div 12;
#X floatatom 635 272 5 0 0 0 - - -;
#X text 640 154 lowest note;
#X obj 634 224 - 1;
#N canvas 0 22 450 278 (subpatch) 0;
#X array scale 6 float 3;
#A 0 0 2 4 7 9 12;
#X coords 0 12 6 0 200 140 1 0 0;
#X restore 133 426 graph;
#X msg 439 486 \; scale resize 6 \; scale 0 0 2 4 7 9 12;
#X obj 333 122 tabread scale;
#X obj 332 95 random 6;
#X floatatom 333 145 5 0 0 0 - - -;
#X obj 334 184 + 0;
#X floatatom 386 157 5 0 0 0 - - -;
#X obj 487 107 random 1000;
#X msg 335 301 \$1 \$2;
#X obj 335 276 pack;
#X obj 113 81 declare -path maxlib;
#X obj 121 125 linear;
#X obj 96 234 gauss;
#X connect 0 0 2 0;
#X connect 0 0 25 0;
#X connect 1 0 0 0;
#X connect 2 0 21 0;
#X connect 4 0 3 0;
#X connect 6 0 0 1;
#X connect 7 0 8 0;
#X connect 7 0 27 0;
#X connect 9 0 4 0;
#X connect 9 0 5 0;
#X connect 9 1 4 1;
#X connect 9 1 5 1;
#X connect 10 0 11 0;
#X connect 11 0 12 0;
#X connect 11 1 17 0;
#X connect 12 0 13 0;
#X connect 14 0 15 0;
#X connect 17 0 14 0;
#X connect 20 0 22 0;
#X connect 21 0 20 0;
#X connect 22 0 23 0;
#X connect 23 0 7 0;
#X connect 24 0 23 1;
#X connect 25 0 27 1;
#X connect 26 0 9 0;
#X connect 27 0 26 0;
