#N canvas 0 23 840 1005 12;
#X floatatom 48 65 5 30 10000 0 - - -;
#X obj 48 276 *~;
#X floatatom 125 147 5 0 0 0 - - -;
#X obj 125 171 dbtorms;
#X msg 125 219 \$1 100;
#X obj 125 245 line~;
#X floatatom 125 195 5 0 0 0 - - -;
#X obj 48 91 mtof;
#X obj 48 308 *~ 0.1;
#X obj 48 35 inlet;
#X obj 125 34 inlet;
#X obj 48 340 throw~ out;
#X obj 48 116 osc~ \$1;
#X connect 0 0 7 0;
#X connect 1 0 8 0;
#X connect 2 0 3 0;
#X connect 3 0 6 0;
#X connect 4 0 5 0;
#X connect 5 0 1 1;
#X connect 6 0 4 0;
#X connect 7 0 12 0;
#X connect 8 0 11 0;
#X connect 9 0 0 0;
#X connect 10 0 2 0;
#X connect 12 0 1 0;
