#N canvas 0 23 840 1005 12;
#X obj 48 352 *~;
#X floatatom 213 174 5 0 0 0 - - -;
#X obj 213 198 dbtorms;
#X msg 213 246 \$1 100;
#X obj 213 272 line~;
#X floatatom 213 222 5 0 0 0 - - -;
#X obj 48 210 mtof;
#X obj 48 384 *~ 0.1;
#X obj 48 35 inlet;
#X obj 125 34 inlet;
#X obj 48 416 throw~ out;
#X obj 48 235 osc~ \$1;
#X obj 216 40 loadbang;
#X obj 48 181 f \$2;
#X obj 213 141 f \$3;
#X obj 300 50 r amp;
#X obj 298 80 route \$1;
#X obj 71 102 route \$1;
#X obj 73 72 r freq;
#X connect 0 0 7 0;
#X connect 1 0 2 0;
#X connect 2 0 5 0;
#X connect 3 0 4 0;
#X connect 4 0 0 1;
#X connect 5 0 3 0;
#X connect 6 0 11 0;
#X connect 7 0 10 0;
#X connect 8 0 13 0;
#X connect 9 0 14 0;
#X connect 11 0 0 0;
#X connect 12 0 13 0;
#X connect 12 0 14 0;
#X connect 13 0 6 0;
#X connect 14 0 1 0;
#X connect 15 0 16 0;
#X connect 16 0 14 0;
#X connect 17 0 13 0;
#X connect 18 0 17 0;
