#N canvas 3 23 1661 1005 12;
#X obj 630 114 catch~ mixL;
#X obj 715 115 catch~ mixR;
#X obj 608 298 dac~;
#X obj 1234 209 global-trigger, f 15;
#X obj 17 428 granular, f 48;
#X obj 17 407 bng 15 250 50 0 empty empty empty 17 7 0 10 -262144 -1
-1;
#X obj 17 385 r b0;
#X obj 52 385 r pitch;
#X obj 108 385 r size;
#X obj 156 385 r start;
#X obj 212 385 r spray;
#X obj 268 385 r pan-spray;
#X obj 352 385 r grain;
#X obj 1284 182 r density;
#X floatatom 1357 183 5 1 32 0 - - -;
#X obj 19 498 granular, f 48;
#X obj 19 477 bng 15 250 50 0 empty empty empty 17 7 0 10 -262144 -1
-1;
#X obj 54 455 r pitch;
#X obj 110 455 r size;
#X obj 158 455 r start;
#X obj 214 455 r spray;
#X obj 270 455 r pan-spray;
#X obj 354 455 r grain;
#X obj 20 566 granular, f 48;
#X obj 20 545 bng 15 250 50 0 empty empty empty 17 7 0 10 -262144 -1
-1;
#X obj 55 523 r pitch;
#X obj 111 523 r size;
#X obj 159 523 r start;
#X obj 215 523 r spray;
#X obj 271 523 r pan-spray;
#X obj 355 523 r grain;
#X obj 20 634 granular, f 48;
#X obj 20 613 bng 15 250 50 0 empty empty empty 17 7 0 10 -262144 -1
-1;
#X obj 55 591 r pitch;
#X obj 111 591 r size;
#X obj 159 591 r start;
#X obj 215 591 r spray;
#X obj 271 591 r pan-spray;
#X obj 355 591 r grain;
#X obj 21 701 granular, f 48;
#X obj 21 680 bng 15 250 50 0 empty empty empty 17 7 0 10 -262144 -1
-1;
#X obj 56 658 r pitch;
#X obj 112 658 r size;
#X obj 160 658 r start;
#X obj 216 658 r spray;
#X obj 272 658 r pan-spray;
#X obj 356 658 r grain;
#X obj 21 770 granular, f 48;
#X obj 21 749 bng 15 250 50 0 empty empty empty 17 7 0 10 -262144 -1
-1;
#X obj 56 727 r pitch;
#X obj 112 727 r size;
#X obj 160 727 r start;
#X obj 216 727 r spray;
#X obj 272 727 r pan-spray;
#X obj 356 727 r grain;
#X obj 22 839 granular, f 48;
#X obj 22 818 bng 15 250 50 0 empty empty empty 17 7 0 10 -262144 -1
-1;
#X obj 57 796 r pitch;
#X obj 113 796 r size;
#X obj 161 796 r start;
#X obj 217 796 r spray;
#X obj 273 796 r pan-spray;
#X obj 357 796 r grain;
#X obj 22 906 granular, f 48;
#X obj 22 885 bng 15 250 50 0 empty empty empty 17 7 0 10 -262144 -1
-1;
#X obj 57 863 r pitch;
#X obj 113 863 r size;
#X obj 161 863 r start;
#X obj 217 863 r spray;
#X obj 273 863 r pan-spray;
#X obj 357 863 r grain;
#X obj 19 455 r b1;
#X obj 20 523 r b2;
#X obj 20 591 r b3;
#X obj 21 658 r b4;
#X obj 21 727 r b5;
#X obj 22 796 r b6;
#X obj 22 863 r b7;
#X obj 418 427 granular, f 48;
#X obj 418 406 bng 15 250 50 0 empty empty empty 17 7 0 10 -262144
-1 -1;
#X obj 453 384 r pitch;
#X obj 509 384 r size;
#X obj 557 384 r start;
#X obj 613 384 r spray;
#X obj 669 384 r pan-spray;
#X obj 753 384 r grain;
#X obj 420 497 granular, f 48;
#X obj 420 476 bng 15 250 50 0 empty empty empty 17 7 0 10 -262144
-1 -1;
#X obj 455 454 r pitch;
#X obj 511 454 r size;
#X obj 559 454 r start;
#X obj 615 454 r spray;
#X obj 671 454 r pan-spray;
#X obj 755 454 r grain;
#X obj 421 565 granular, f 48;
#X obj 421 544 bng 15 250 50 0 empty empty empty 17 7 0 10 -262144
-1 -1;
#X obj 469 522 r pitch;
#X obj 525 522 r size;
#X obj 573 522 r start;
#X obj 629 522 r spray;
#X obj 685 522 r pan-spray;
#X obj 769 522 r grain;
#X obj 421 633 granular, f 48;
#X obj 421 612 bng 15 250 50 0 empty empty empty 17 7 0 10 -262144
-1 -1;
#X obj 466 590 r pitch;
#X obj 522 590 r size;
#X obj 570 590 r start;
#X obj 626 590 r spray;
#X obj 682 590 r pan-spray;
#X obj 766 590 r grain;
#X obj 422 700 granular, f 48;
#X obj 422 679 bng 15 250 50 0 empty empty empty 17 7 0 10 -262144
-1 -1;
#X obj 467 658 r pitch;
#X obj 523 658 r size;
#X obj 571 658 r start;
#X obj 627 658 r spray;
#X obj 683 658 r pan-spray;
#X obj 767 658 r grain;
#X obj 422 769 granular, f 48;
#X obj 422 748 bng 15 250 50 0 empty empty empty 17 7 0 10 -262144
-1 -1;
#X obj 468 726 r pitch;
#X obj 524 726 r size;
#X obj 572 726 r start;
#X obj 628 726 r spray;
#X obj 684 726 r pan-spray;
#X obj 768 726 r grain;
#X obj 423 838 granular, f 48;
#X obj 423 817 bng 15 250 50 0 empty empty empty 17 7 0 10 -262144
-1 -1;
#X obj 468 795 r pitch;
#X obj 524 795 r size;
#X obj 572 795 r start;
#X obj 628 795 r spray;
#X obj 684 795 r pan-spray;
#X obj 768 795 r grain;
#X obj 423 905 granular, f 48;
#X obj 423 884 bng 15 250 50 0 empty empty empty 17 7 0 10 -262144
-1 -1;
#X obj 469 862 r pitch;
#X obj 525 862 r size;
#X obj 573 862 r start;
#X obj 629 862 r spray;
#X obj 685 862 r pan-spray;
#X obj 769 862 r grain;
#X obj 418 384 r b8;
#X obj 420 454 r b9;
#X obj 421 522 r b10;
#X obj 421 590 r b11;
#X obj 422 657 r b12;
#X obj 422 726 r b13;
#X obj 423 795 r b14;
#X obj 423 862 r b15;
#X obj 530 193 line~;
#X floatatom 530 141 5 0 0 0 - - -;
#X msg 530 167 \$1 20;
#X obj 607 259 *~;
#X obj 638 258 *~;
#X obj 833 428 granular, f 48;
#X obj 833 407 bng 15 250 50 0 empty empty empty 17 7 0 10 -262144
-1 -1;
#X obj 874 385 r pitch;
#X obj 930 385 r size;
#X obj 978 385 r start;
#X obj 1034 385 r spray;
#X obj 1090 385 r pan-spray;
#X obj 1174 385 r grain;
#X obj 835 498 granular, f 48;
#X obj 835 477 bng 15 250 50 0 empty empty empty 17 7 0 10 -262144
-1 -1;
#X obj 876 455 r pitch;
#X obj 932 455 r size;
#X obj 980 455 r start;
#X obj 1036 455 r spray;
#X obj 1092 455 r pan-spray;
#X obj 1176 455 r grain;
#X obj 836 566 granular, f 48;
#X obj 836 545 bng 15 250 50 0 empty empty empty 17 7 0 10 -262144
-1 -1;
#X obj 884 523 r pitch;
#X obj 940 523 r size;
#X obj 988 523 r start;
#X obj 1044 523 r spray;
#X obj 1100 523 r pan-spray;
#X obj 1184 523 r grain;
#X obj 836 634 granular, f 48;
#X obj 836 613 bng 15 250 50 0 empty empty empty 17 7 0 10 -262144
-1 -1;
#X obj 881 591 r pitch;
#X obj 937 591 r size;
#X obj 985 591 r start;
#X obj 1041 591 r spray;
#X obj 1097 591 r pan-spray;
#X obj 1181 591 r grain;
#X obj 837 701 granular, f 48;
#X obj 837 680 bng 15 250 50 0 empty empty empty 17 7 0 10 -262144
-1 -1;
#X obj 882 659 r pitch;
#X obj 938 659 r size;
#X obj 986 659 r start;
#X obj 1042 659 r spray;
#X obj 1098 659 r pan-spray;
#X obj 1182 659 r grain;
#X obj 837 770 granular, f 48;
#X obj 837 749 bng 15 250 50 0 empty empty empty 17 7 0 10 -262144
-1 -1;
#X obj 883 727 r pitch;
#X obj 939 727 r size;
#X obj 987 727 r start;
#X obj 1043 727 r spray;
#X obj 1099 727 r pan-spray;
#X obj 1183 727 r grain;
#X obj 838 839 granular, f 48;
#X obj 838 818 bng 15 250 50 0 empty empty empty 17 7 0 10 -262144
-1 -1;
#X obj 883 796 r pitch;
#X obj 939 796 r size;
#X obj 987 796 r start;
#X obj 1043 796 r spray;
#X obj 1099 796 r pan-spray;
#X obj 1183 796 r grain;
#X obj 838 906 granular, f 48;
#X obj 838 885 bng 15 250 50 0 empty empty empty 17 7 0 10 -262144
-1 -1;
#X obj 884 863 r pitch;
#X obj 940 863 r size;
#X obj 988 863 r start;
#X obj 1044 863 r spray;
#X obj 1100 863 r pan-spray;
#X obj 1184 863 r grain;
#X obj 1242 425 granular, f 48;
#X obj 1242 404 bng 15 250 50 0 empty empty empty 17 7 0 10 -262144
-1 -1;
#X obj 1287 382 r pitch;
#X obj 1343 382 r size;
#X obj 1391 382 r start;
#X obj 1447 382 r spray;
#X obj 1503 382 r pan-spray;
#X obj 1587 382 r grain;
#X obj 1244 495 granular, f 48;
#X obj 1244 474 bng 15 250 50 0 empty empty empty 17 7 0 10 -262144
-1 -1;
#X obj 1290 452 r pitch;
#X obj 1346 452 r size;
#X obj 1394 452 r start;
#X obj 1450 452 r spray;
#X obj 1506 452 r pan-spray;
#X obj 1590 452 r grain;
#X obj 1245 563 granular, f 48;
#X obj 1245 542 bng 15 250 50 0 empty empty empty 17 7 0 10 -262144
-1 -1;
#X obj 1293 520 r pitch;
#X obj 1349 520 r size;
#X obj 1397 520 r start;
#X obj 1453 520 r spray;
#X obj 1509 520 r pan-spray;
#X obj 1593 520 r grain;
#X obj 1245 631 granular, f 48;
#X obj 1245 610 bng 15 250 50 0 empty empty empty 17 7 0 10 -262144
-1 -1;
#X obj 1290 588 r pitch;
#X obj 1346 588 r size;
#X obj 1394 588 r start;
#X obj 1450 588 r spray;
#X obj 1506 588 r pan-spray;
#X obj 1590 588 r grain;
#X obj 1246 698 granular, f 48;
#X obj 1246 677 bng 15 250 50 0 empty empty empty 17 7 0 10 -262144
-1 -1;
#X obj 1291 656 r pitch;
#X obj 1347 656 r size;
#X obj 1395 656 r start;
#X obj 1451 656 r spray;
#X obj 1507 656 r pan-spray;
#X obj 1591 656 r grain;
#X obj 1246 767 granular, f 48;
#X obj 1246 746 bng 15 250 50 0 empty empty empty 17 7 0 10 -262144
-1 -1;
#X obj 1292 724 r pitch;
#X obj 1348 724 r size;
#X obj 1396 724 r start;
#X obj 1452 724 r spray;
#X obj 1508 724 r pan-spray;
#X obj 1592 724 r grain;
#X obj 1247 836 granular, f 48;
#X obj 1247 815 bng 15 250 50 0 empty empty empty 17 7 0 10 -262144
-1 -1;
#X obj 1292 793 r pitch;
#X obj 1348 793 r size;
#X obj 1396 793 r start;
#X obj 1452 793 r spray;
#X obj 1508 793 r pan-spray;
#X obj 1592 793 r grain;
#X obj 1247 903 granular, f 48;
#X obj 1247 882 bng 15 250 50 0 empty empty empty 17 7 0 10 -262144
-1 -1;
#X obj 1293 860 r pitch;
#X obj 1349 860 r size;
#X obj 1397 860 r start;
#X obj 1453 860 r spray;
#X obj 1509 860 r pan-spray;
#X obj 1593 860 r grain;
#X obj 833 385 r b16;
#X obj 835 455 r b17;
#X obj 836 523 r b18;
#X obj 836 591 r b19;
#X obj 837 658 r b20;
#X obj 837 727 r b21;
#X obj 838 796 r b22;
#X obj 838 863 r b23;
#X obj 1242 382 r b24;
#X obj 1245 452 r b25;
#X obj 1245 520 r b26;
#X obj 1245 588 r b27;
#X obj 1246 655 r b28;
#X obj 1246 724 r b29;
#X obj 1246 793 r b30;
#X obj 1247 860 r b31;
#X obj 728 207 freeverb~;
#X msg 895 221 width 1;
#X msg 894 246 damping 0.8;
#X obj 1357 158 r voices;
#X obj 1234 157 r enable;
#X obj 1234 187 tgl 15 0 empty empty empty 17 7 0 10 -262144 -1 -1
1 1;
#X obj 530 115 r volume;
#X obj 948 120 r wet;
#X msg 948 143 wet \$1;
#X obj 858 120 r roomsize;
#X msg 858 144 roomsize \$1;
#X obj 453 266 metro 100;
#X obj 453 247 tgl 15 0 empty empty empty 17 7 0 10 -262144 -1 -1 1
1;
#X obj 483 299 tabwrite~ scope;
#X obj 1005 120 r dry;
#X msg 1005 143 dry \$1;
#X obj 453 222 loadbang;
#X text 43 64 this is the main core of the synth;
#X text 152 360 voices 0-7;
#X text 575 354 voices 8-15;
#X text 983 355 voices 16-23;
#X text 1396 351 voices 24-31;
#X text 421 117 master volume;
#X text 215 299 this writes to the scope on UI patch;
#X obj 895 198 loadbang;
#X text 606 86 each granular sends audio here;
#X text 850 92 reverb with simple user controls;
#X text 46 84 we have up to 32 voices;
#X text 1116 239 this controls the global triggering of the each granular
;
#X connect 0 0 299 0;
#X connect 1 0 299 1;
#X connect 5 0 4 0;
#X connect 6 0 5 0;
#X connect 7 0 4 1;
#X connect 8 0 4 2;
#X connect 9 0 4 3;
#X connect 10 0 4 4;
#X connect 11 0 4 5;
#X connect 12 0 4 6;
#X connect 13 0 3 1;
#X connect 14 0 3 2;
#X connect 16 0 15 0;
#X connect 17 0 15 1;
#X connect 18 0 15 2;
#X connect 19 0 15 3;
#X connect 20 0 15 4;
#X connect 21 0 15 5;
#X connect 22 0 15 6;
#X connect 24 0 23 0;
#X connect 25 0 23 1;
#X connect 26 0 23 2;
#X connect 27 0 23 3;
#X connect 28 0 23 4;
#X connect 29 0 23 5;
#X connect 30 0 23 6;
#X connect 32 0 31 0;
#X connect 33 0 31 1;
#X connect 34 0 31 2;
#X connect 35 0 31 3;
#X connect 36 0 31 4;
#X connect 37 0 31 5;
#X connect 38 0 31 6;
#X connect 40 0 39 0;
#X connect 41 0 39 1;
#X connect 42 0 39 2;
#X connect 43 0 39 3;
#X connect 44 0 39 4;
#X connect 45 0 39 5;
#X connect 46 0 39 6;
#X connect 48 0 47 0;
#X connect 49 0 47 1;
#X connect 50 0 47 2;
#X connect 51 0 47 3;
#X connect 52 0 47 4;
#X connect 53 0 47 5;
#X connect 54 0 47 6;
#X connect 56 0 55 0;
#X connect 57 0 55 1;
#X connect 58 0 55 2;
#X connect 59 0 55 3;
#X connect 60 0 55 4;
#X connect 61 0 55 5;
#X connect 62 0 55 6;
#X connect 64 0 63 0;
#X connect 65 0 63 1;
#X connect 66 0 63 2;
#X connect 67 0 63 3;
#X connect 68 0 63 4;
#X connect 69 0 63 5;
#X connect 70 0 63 6;
#X connect 71 0 16 0;
#X connect 72 0 24 0;
#X connect 73 0 32 0;
#X connect 74 0 40 0;
#X connect 75 0 48 0;
#X connect 76 0 56 0;
#X connect 77 0 64 0;
#X connect 79 0 78 0;
#X connect 80 0 78 1;
#X connect 81 0 78 2;
#X connect 82 0 78 3;
#X connect 83 0 78 4;
#X connect 84 0 78 5;
#X connect 85 0 78 6;
#X connect 87 0 86 0;
#X connect 88 0 86 1;
#X connect 89 0 86 2;
#X connect 90 0 86 3;
#X connect 91 0 86 4;
#X connect 92 0 86 5;
#X connect 93 0 86 6;
#X connect 95 0 94 0;
#X connect 96 0 94 1;
#X connect 97 0 94 2;
#X connect 98 0 94 3;
#X connect 99 0 94 4;
#X connect 100 0 94 5;
#X connect 101 0 94 6;
#X connect 103 0 102 0;
#X connect 104 0 102 1;
#X connect 105 0 102 2;
#X connect 106 0 102 3;
#X connect 107 0 102 4;
#X connect 108 0 102 5;
#X connect 109 0 102 6;
#X connect 111 0 110 0;
#X connect 112 0 110 1;
#X connect 113 0 110 2;
#X connect 114 0 110 3;
#X connect 115 0 110 4;
#X connect 116 0 110 5;
#X connect 117 0 110 6;
#X connect 119 0 118 0;
#X connect 120 0 118 1;
#X connect 121 0 118 2;
#X connect 122 0 118 3;
#X connect 123 0 118 4;
#X connect 124 0 118 5;
#X connect 125 0 118 6;
#X connect 127 0 126 0;
#X connect 128 0 126 1;
#X connect 129 0 126 2;
#X connect 130 0 126 3;
#X connect 131 0 126 4;
#X connect 132 0 126 5;
#X connect 133 0 126 6;
#X connect 135 0 134 0;
#X connect 136 0 134 1;
#X connect 137 0 134 2;
#X connect 138 0 134 3;
#X connect 139 0 134 4;
#X connect 140 0 134 5;
#X connect 141 0 134 6;
#X connect 142 0 79 0;
#X connect 143 0 87 0;
#X connect 144 0 95 0;
#X connect 145 0 103 0;
#X connect 146 0 111 0;
#X connect 147 0 119 0;
#X connect 148 0 127 0;
#X connect 149 0 135 0;
#X connect 150 0 153 1;
#X connect 150 0 154 1;
#X connect 151 0 152 0;
#X connect 152 0 150 0;
#X connect 153 0 2 0;
#X connect 153 0 312 0;
#X connect 154 0 2 1;
#X connect 156 0 155 0;
#X connect 157 0 155 1;
#X connect 158 0 155 2;
#X connect 159 0 155 3;
#X connect 160 0 155 4;
#X connect 161 0 155 5;
#X connect 162 0 155 6;
#X connect 164 0 163 0;
#X connect 165 0 163 1;
#X connect 166 0 163 2;
#X connect 167 0 163 3;
#X connect 168 0 163 4;
#X connect 169 0 163 5;
#X connect 170 0 163 6;
#X connect 172 0 171 0;
#X connect 173 0 171 1;
#X connect 174 0 171 2;
#X connect 175 0 171 3;
#X connect 176 0 171 4;
#X connect 177 0 171 5;
#X connect 178 0 171 6;
#X connect 180 0 179 0;
#X connect 181 0 179 1;
#X connect 182 0 179 2;
#X connect 183 0 179 3;
#X connect 184 0 179 4;
#X connect 185 0 179 5;
#X connect 186 0 179 6;
#X connect 188 0 187 0;
#X connect 189 0 187 1;
#X connect 190 0 187 2;
#X connect 191 0 187 3;
#X connect 192 0 187 4;
#X connect 193 0 187 5;
#X connect 194 0 187 6;
#X connect 196 0 195 0;
#X connect 197 0 195 1;
#X connect 198 0 195 2;
#X connect 199 0 195 3;
#X connect 200 0 195 4;
#X connect 201 0 195 5;
#X connect 202 0 195 6;
#X connect 204 0 203 0;
#X connect 205 0 203 1;
#X connect 206 0 203 2;
#X connect 207 0 203 3;
#X connect 208 0 203 4;
#X connect 209 0 203 5;
#X connect 210 0 203 6;
#X connect 212 0 211 0;
#X connect 213 0 211 1;
#X connect 214 0 211 2;
#X connect 215 0 211 3;
#X connect 216 0 211 4;
#X connect 217 0 211 5;
#X connect 218 0 211 6;
#X connect 220 0 219 0;
#X connect 221 0 219 1;
#X connect 222 0 219 2;
#X connect 223 0 219 3;
#X connect 224 0 219 4;
#X connect 225 0 219 5;
#X connect 226 0 219 6;
#X connect 228 0 227 0;
#X connect 229 0 227 1;
#X connect 230 0 227 2;
#X connect 231 0 227 3;
#X connect 232 0 227 4;
#X connect 233 0 227 5;
#X connect 234 0 227 6;
#X connect 236 0 235 0;
#X connect 237 0 235 1;
#X connect 238 0 235 2;
#X connect 239 0 235 3;
#X connect 240 0 235 4;
#X connect 241 0 235 5;
#X connect 242 0 235 6;
#X connect 244 0 243 0;
#X connect 245 0 243 1;
#X connect 246 0 243 2;
#X connect 247 0 243 3;
#X connect 248 0 243 4;
#X connect 249 0 243 5;
#X connect 250 0 243 6;
#X connect 252 0 251 0;
#X connect 253 0 251 1;
#X connect 254 0 251 2;
#X connect 255 0 251 3;
#X connect 256 0 251 4;
#X connect 257 0 251 5;
#X connect 258 0 251 6;
#X connect 260 0 259 0;
#X connect 261 0 259 1;
#X connect 262 0 259 2;
#X connect 263 0 259 3;
#X connect 264 0 259 4;
#X connect 265 0 259 5;
#X connect 266 0 259 6;
#X connect 268 0 267 0;
#X connect 269 0 267 1;
#X connect 270 0 267 2;
#X connect 271 0 267 3;
#X connect 272 0 267 4;
#X connect 273 0 267 5;
#X connect 274 0 267 6;
#X connect 276 0 275 0;
#X connect 277 0 275 1;
#X connect 278 0 275 2;
#X connect 279 0 275 3;
#X connect 280 0 275 4;
#X connect 281 0 275 5;
#X connect 282 0 275 6;
#X connect 283 0 156 0;
#X connect 284 0 164 0;
#X connect 285 0 172 0;
#X connect 286 0 180 0;
#X connect 287 0 188 0;
#X connect 288 0 196 0;
#X connect 289 0 204 0;
#X connect 290 0 212 0;
#X connect 291 0 220 0;
#X connect 292 0 228 0;
#X connect 293 0 236 0;
#X connect 294 0 244 0;
#X connect 295 0 252 0;
#X connect 296 0 260 0;
#X connect 297 0 268 0;
#X connect 298 0 276 0;
#X connect 299 0 153 0;
#X connect 299 1 154 0;
#X connect 300 0 299 0;
#X connect 301 0 299 0;
#X connect 302 0 14 0;
#X connect 303 0 304 0;
#X connect 304 0 3 0;
#X connect 305 0 151 0;
#X connect 306 0 307 0;
#X connect 307 0 299 0;
#X connect 308 0 309 0;
#X connect 309 0 299 0;
#X connect 310 0 312 0;
#X connect 311 0 310 0;
#X connect 313 0 314 0;
#X connect 314 0 299 0;
#X connect 315 0 311 0;
#X connect 323 0 300 0;
#X connect 323 0 301 0;
