#N canvas 592 92 840 492 12;
#X obj 115 101 hsl 128 15 48 108 0 0 empty empty empty -2 -8 0 10 -262144
-1 -1 11000 1;
#X obj 185 397 dac~;
#X obj 338 390 metro 100;
#N canvas 0 22 450 278 (subpatch) 0;
#X array Scope 100 float 3;
#A 0 0 0 0 0 0 0 0 0 0 0 0 0 0 0 0 0 0 0 0 0 0 0 0 0 0 0 0 0 0 0 0
0 0 0 0 0 0 0 0 0 0 0 0 0 0 0 0 0 0 0 0 0 0 0 0 0 0 0 0 0 0 0 0 0 0
0 0 0 0 0 0 0 0 0 0 0 0 0 0 0 0 0 0 0 0 0 0 0 0 0 0 0 0 0 0 0 0 0 0
0;
#X coords 0 1 100 -1 200 140 1 0 0;
#X restore 426 312 graph;
#X obj 338 361 tgl 15 0 empty empty empty 17 7 0 10 -262144 -1 -1 0
1;
#X obj 302 425 tabwrite~ Scope;
#X floatatom 112 123 5 0 0 0 - - -;
#X obj 192 307 *~;
#X obj 462 181 line~;
#X floatatom 462 129 5 0 0 0 - - -;
#X obj 192 281 osc~;
#X obj 266 152 osc~;
#X obj 269 102 hsl 120 15 0 8 0 0 empty empty empty -2 -8 0 10 -262144
-1 -1 4462 1;
#X floatatom 266 126 5 0 0 0 - - -;
#X obj 192 256 mtof~;
#X obj 192 231 +~;
#X obj 266 205 *~;
#X obj 324 167 hsl 64 15 0 2 0 0 empty empty empty -2 -8 0 10 -262144
-1 -1 3800 1;
#X text 395 100 freq.;
#X text 399 165 amp.;
#X floatatom 648 281 5 0 0 0 - - -;
#X obj 465 106 hsl 64 15 0 1 0 0 empty empty empty -2 -8 0 10 -262144
-1 -1 0 1;
#X floatatom 321 187 5 0 0 0 - - -;
#X text 309 77 Vibrato;
#X text 159 76 Pitch;
#X text 465 80 Amplitude;
#X msg 462 155 \$1 20;
#X obj 649 333 vu 15 120 empty empty -1 -8 0 10 -66577 -1 1 0;
#X obj 648 305 - 100;
#X obj 648 257 env~ 128;
#X obj 112 15 loadbang;
#X obj 112 40 int 69;
#X obj 266 15 loadbang;
#X obj 112 173 line~;
#X msg 112 147 \$1 20;
#X obj 321 122 loadbang;
#X obj 266 40 float 3.6;
#X obj 321 145 float 1.2;
#X connect 0 0 6 0;
#X connect 2 0 5 0;
#X connect 4 0 2 0;
#X connect 6 0 34 0;
#X connect 7 0 5 0;
#X connect 7 0 29 0;
#X connect 7 0 1 0;
#X connect 7 0 1 1;
#X connect 8 0 7 1;
#X connect 9 0 26 0;
#X connect 10 0 7 0;
#X connect 11 0 16 0;
#X connect 12 0 13 0;
#X connect 13 0 11 0;
#X connect 14 0 10 0;
#X connect 15 0 14 0;
#X connect 16 0 15 1;
#X connect 17 0 22 0;
#X connect 20 0 28 0;
#X connect 21 0 9 0;
#X connect 22 0 16 1;
#X connect 26 0 8 0;
#X connect 28 0 27 0;
#X connect 29 0 20 0;
#X connect 30 0 31 0;
#X connect 31 0 0 0;
#X connect 32 0 36 0;
#X connect 33 0 15 0;
#X connect 34 0 33 0;
#X connect 35 0 37 0;
#X connect 36 0 12 0;
#X connect 37 0 17 0;
