#N canvas 0 23 840 492 12;
#X obj 264 290 int 1;
#X floatatom 264 321 5 0 0 0 - - -;
#X obj 311 351 print count;
#X obj 264 352 mod 8;
#X floatatom 264 379 5 0 0 0 - - -;
#X obj 264 210 tgl 15 0 empty empty empty 17 7 0 10 -262144 -1 -1 1
1;
#X obj 264 266 bng 15 250 50 0 empty empty empty 17 7 0 10 -262144
-1 -1;
#X obj 264 404 hradio 15 1 0 8 empty empty empty 0 -8 0 10 -262144
-1 -1 5;
#X obj 325 184 /, f 13;
#X floatatom 385 101 5 0 0 0 - - -;
#X msg 325 160 60000;
#X obj 385 127 t b f;
#X floatatom 324 210 5 0 0 0 - - -;
#X text 370 210 ms. (period);
#X text 434 101 b.p.m (freq);
#X obj 264 239 metro 0, f 9;
#X obj 312 291 + 1;
#X msg 296 265 0, f 4;
#X text 210 208 on/off;
#X obj 385 76 int 120;
#X obj 385 51 loadbang;
#X text 306 379 step;
#X connect 0 0 1 0;
#X connect 0 0 16 0;
#X connect 1 0 2 0;
#X connect 1 0 3 0;
#X connect 3 0 4 0;
#X connect 4 0 7 0;
#X connect 5 0 15 0;
#X connect 6 0 0 0;
#X connect 8 0 12 0;
#X connect 9 0 11 0;
#X connect 10 0 8 0;
#X connect 11 0 10 0;
#X connect 11 1 8 1;
#X connect 12 0 15 1;
#X connect 15 0 6 0;
#X connect 16 0 0 1;
#X connect 17 0 0 1;
#X connect 19 0 9 0;
#X connect 20 0 19 0;
