#N canvas 1227 174 395 302 12;
#X obj 107 157 line, f 7;
#X floatatom 107 183 5 0 0 0 - - -;
#X msg 74 129 0;
#X msg 117 130 1 \$1;
#X floatatom 168 57 5 0.5 1000 0 - - -;
#X msg 115 57 1000;
#X obj 117 105 *;
#X obj 114 29 r auto-start;
#X obj 16 30 r auto-reset;
#X obj 209 30 r auto-seconds;
#X obj 107 207 s start;
#X connect 0 0 1 0;
#X connect 1 0 10 0;
#X connect 2 0 0 0;
#X connect 3 0 0 0;
#X connect 4 0 6 1;
#X connect 5 0 6 0;
#X connect 6 0 3 0;
#X connect 7 0 5 0;
#X connect 8 0 2 0;
#X connect 9 0 4 0;
