#N canvas 160 362 569 344 12;
#X obj 128 173 line, f 7;
#X floatatom 128 199 5 0 0 0 - - -;
#X msg 95 145 0;
#X msg 138 146 1 \$1;
#X floatatom 189 73 5 0.5 1000 0 - - -;
#X msg 136 73 1000;
#X obj 138 121 *;
#X obj 135 45 r auto-start;
#X obj 37 46 r auto-reset;
#X obj 230 46 r auto-seconds;
#X obj 128 223 s start;
#X text 35 257 this provides VERY simple automation of the 'start'
point;
#X text 32 20 'start' to 0;
#X text 146 19 go to 1;
#X text 232 19 time taken in sec;
#X connect 0 0 1 0;
#X connect 1 0 10 0;
#X connect 2 0 0 0;
#X connect 3 0 0 0;
#X connect 4 0 6 1;
#X connect 5 0 6 0;
#X connect 6 0 3 0;
#X connect 7 0 5 0;
#X connect 8 0 2 0;
#X connect 9 0 4 0;
