#N canvas 538 119 1680 1005 12;
#X obj 34 141 s density;
#X obj 110 142 s pitch;
#X msg 110 116 1000;
#X obj 172 142 s start;
#X msg 172 116 0;
#X obj 232 142 s size;
#X obj 251 58 bng 15 250 50 0 empty set-default empty 17 7 0 10 -262144
-1 -1;
#X obj 284 143 s spray;
#X msg 283 119 0, f 2;
#X obj 342 143 s pan-spray;
#X msg 342 122 0;
#X obj 426 143 s volume;
#X msg 426 121 0.67;
#X obj 493 142 s dry;
#X obj 537 142 s wet;
#X msg 493 122 1;
#X msg 538 119 0;
#X msg 579 119 0.7;
#X msg 34 115 1;
#X msg 664 120 32;
#X msg 232 118 0.05;
#X obj 251 36 t b;
#X obj 579 142 s roomsize;
#X obj 664 142 s d-voices;
#X obj 251 12 r set-default;
#X connect 2 0 1 0;
#X connect 4 0 3 0;
#X connect 6 0 18 0;
#X connect 6 0 2 0;
#X connect 6 0 4 0;
#X connect 6 0 20 0;
#X connect 6 0 8 0;
#X connect 6 0 10 0;
#X connect 6 0 12 0;
#X connect 6 0 15 0;
#X connect 6 0 16 0;
#X connect 6 0 17 0;
#X connect 6 0 19 0;
#X connect 8 0 7 0;
#X connect 10 0 9 0;
#X connect 12 0 11 0;
#X connect 15 0 13 0;
#X connect 16 0 14 0;
#X connect 17 0 22 0;
#X connect 18 0 0 0;
#X connect 19 0 23 0;
#X connect 20 0 5 0;
#X connect 21 0 6 0;
#X connect 24 0 21 0;
