#N canvas 0 23 1680 1005 12;
#X obj 39 366 bng 15 250 50 0 empty empty empty 17 7 0 10 -262144 -1
-1;
#X obj 35 117 int 1;
#X obj 92 117 + 1;
#X floatatom 35 143 5 0 0 0 - - -;
#X floatatom 35 192 5 0 0 0 - - -;
#X obj 236 298 == 2;
#X obj 78 301 == 0;
#X obj 154 301 == 1;
#X floatatom 78 324 2 0 0 0 - - -;
#X floatatom 154 323 2 0 0 0 - - -;
#X floatatom 236 320 2 0 0 0 - - -;
#X obj 35 215 t b f, f 9;
#X obj 39 344 spigot;
#X obj 115 366 bng 15 250 50 0 empty empty empty 17 7 0 10 -262144
-1 -1;
#X obj 115 344 spigot;
#X obj 197 364 bng 15 250 50 0 empty empty empty 17 7 0 10 -262144
-1 -1;
#X obj 197 341 spigot;
#X floatatom 209 68 5 0 0 0 - - -;
#X text 207 24 no. voices;
#X obj 275 365 bng 15 250 50 0 empty empty empty 17 7 0 10 -262144
-1 -1;
#X obj 275 342 spigot;
#X floatatom 95 69 5 0 0 0 - - -;
#X obj 35 239 s mb;
#X obj 39 321 r mb;
#X obj 115 320 r mb;
#X obj 197 317 r mb;
#X obj 275 319 r mb;
#X obj 95 239 s mf;
#X obj 78 278 r mf;
#X obj 154 278 r mf;
#X obj 236 277 r mf;
#X obj 314 276 r mf;
#X obj 354 363 bng 15 250 50 0 empty empty empty 17 7 0 10 -262144
-1 -1;
#X floatatom 393 321 2 0 0 0 - - -;
#X floatatom 466 321 2 0 0 0 - - -;
#X floatatom 547 319 2 0 0 0 - - -;
#X obj 354 342 spigot;
#X obj 427 364 bng 15 250 50 0 empty empty empty 17 7 0 10 -262144
-1 -1;
#X obj 427 342 spigot;
#X obj 509 362 bng 15 250 50 0 empty empty empty 17 7 0 10 -262144
-1 -1;
#X obj 509 339 spigot;
#X floatatom 626 318 2 0 0 0 - - -;
#X obj 587 363 bng 15 250 50 0 empty empty empty 17 7 0 10 -262144
-1 -1;
#X obj 587 340 spigot;
#X obj 354 318 r mb;
#X obj 427 318 r mb;
#X obj 509 315 r mb;
#X obj 587 317 r mb;
#X obj 393 275 r mf;
#X obj 466 276 r mf;
#X obj 547 273 r mf;
#X obj 626 273 r mf;
#X floatatom 314 319 2 0 0 0 - - -;
#X obj 113 512 bng 15 250 50 0 empty empty empty 17 7 0 10 -262144
-1 -1;
#X floatatom 152 470 2 0 0 0 - - -;
#X floatatom 228 469 2 0 0 0 - - -;
#X floatatom 310 466 2 0 0 0 - - -;
#X obj 113 490 spigot;
#X obj 189 512 bng 15 250 50 0 empty empty empty 17 7 0 10 -262144
-1 -1;
#X obj 189 490 spigot;
#X obj 271 510 bng 15 250 50 0 empty empty empty 17 7 0 10 -262144
-1 -1;
#X obj 271 487 spigot;
#X obj 349 511 bng 15 250 50 0 empty empty empty 17 7 0 10 -262144
-1 -1;
#X obj 349 488 spigot;
#X obj 113 467 r mb;
#X obj 189 466 r mb;
#X obj 271 463 r mb;
#X obj 349 465 r mb;
#X obj 152 424 r mf;
#X obj 228 424 r mf;
#X obj 310 423 r mf;
#X obj 388 422 r mf;
#X obj 428 509 bng 15 250 50 0 empty empty empty 17 7 0 10 -262144
-1 -1;
#X floatatom 467 467 2 0 0 0 - - -;
#X floatatom 540 467 2 0 0 0 - - -;
#X floatatom 624 464 2 0 0 0 - - -;
#X obj 428 488 spigot;
#X obj 501 510 bng 15 250 50 0 empty empty empty 17 7 0 10 -262144
-1 -1;
#X obj 501 488 spigot;
#X obj 586 507 bng 15 250 50 0 empty empty empty 17 7 0 10 -262144
-1 -1;
#X obj 586 484 spigot;
#X obj 428 464 r mb;
#X obj 501 464 r mb;
#X obj 586 460 r mb;
#X obj 467 421 r mf;
#X obj 540 422 r mf;
#X obj 624 418 r mf;
#X floatatom 388 465 2 0 0 0 - - -;
#X obj 152 447 == 9;
#X obj 228 447 == 10;
#X obj 310 444 == 11;
#X obj 388 443 == 12;
#X obj 467 444 == 13;
#X obj 540 445 == 14;
#X obj 624 442 == 15;
#X obj 314 297 == 3;
#X obj 393 298 == 4;
#X obj 466 299 == 5;
#X obj 547 297 == 6;
#X obj 626 295 == 7;
#X floatatom 71 468 2 0 0 0 - - -;
#X obj 32 513 bng 15 250 50 0 empty empty empty 17 7 0 10 -262144 -1
-1;
#X obj 32 490 spigot;
#X obj 32 467 r mb;
#X obj 71 423 r mf;
#X obj 71 445 == 8;
#X obj 35 46 inlet;
#X obj 95 47 inlet;
#X text 33 27 on/off;
#X text 93 26 period (ms);
#X obj 39 385 s b0;
#X obj 115 385 s b1;
#X obj 197 383 s b2;
#X obj 275 383 s b3;
#X obj 354 381 s b4;
#X obj 427 381 s b5;
#X obj 509 380 s b6;
#X obj 587 381 s b7;
#X obj 32 532 s b8;
#X obj 113 530 s b9;
#X obj 189 530 s b10;
#X obj 271 528 s b11;
#X obj 349 528 s b12;
#X obj 428 527 s b13;
#X obj 501 528 s b14;
#X obj 586 525 s b15;
#X obj 35 72 tgl 15 0 empty empty empty 17 7 0 10 -262144 -1 -1 0 1
;
#X obj 209 45 inlet;
#X obj 27 668 bng 15 250 50 0 empty empty empty 17 7 0 10 -262144 -1
-1;
#X floatatom 66 626 2 0 0 0 - - -;
#X floatatom 142 625 2 0 0 0 - - -;
#X floatatom 224 622 2 0 0 0 - - -;
#X obj 27 646 spigot;
#X obj 103 668 bng 15 250 50 0 empty empty empty 17 7 0 10 -262144
-1 -1;
#X obj 103 646 spigot;
#X obj 185 666 bng 15 250 50 0 empty empty empty 17 7 0 10 -262144
-1 -1;
#X obj 185 643 spigot;
#X obj 263 667 bng 15 250 50 0 empty empty empty 17 7 0 10 -262144
-1 -1;
#X obj 263 644 spigot;
#X obj 27 623 r mb;
#X obj 103 622 r mb;
#X obj 185 619 r mb;
#X obj 263 621 r mb;
#X obj 66 580 r mf;
#X obj 142 580 r mf;
#X obj 224 579 r mf;
#X obj 302 578 r mf;
#X obj 342 665 bng 15 250 50 0 empty empty empty 17 7 0 10 -262144
-1 -1;
#X floatatom 381 623 2 0 0 0 - - -;
#X floatatom 454 623 2 0 0 0 - - -;
#X floatatom 535 621 2 0 0 0 - - -;
#X obj 342 644 spigot;
#X obj 415 666 bng 15 250 50 0 empty empty empty 17 7 0 10 -262144
-1 -1;
#X obj 415 644 spigot;
#X obj 497 664 bng 15 250 50 0 empty empty empty 17 7 0 10 -262144
-1 -1;
#X obj 497 641 spigot;
#X floatatom 614 620 2 0 0 0 - - -;
#X obj 575 665 bng 15 250 50 0 empty empty empty 17 7 0 10 -262144
-1 -1;
#X obj 575 642 spigot;
#X obj 342 620 r mb;
#X obj 415 620 r mb;
#X obj 497 617 r mb;
#X obj 575 619 r mb;
#X obj 381 577 r mf;
#X obj 454 578 r mf;
#X obj 535 575 r mf;
#X obj 614 575 r mf;
#X floatatom 302 621 2 0 0 0 - - -;
#X obj 101 814 bng 15 250 50 0 empty empty empty 17 7 0 10 -262144
-1 -1;
#X floatatom 140 772 2 0 0 0 - - -;
#X floatatom 216 771 2 0 0 0 - - -;
#X floatatom 298 768 2 0 0 0 - - -;
#X obj 101 792 spigot;
#X obj 177 814 bng 15 250 50 0 empty empty empty 17 7 0 10 -262144
-1 -1;
#X obj 177 792 spigot;
#X obj 259 812 bng 15 250 50 0 empty empty empty 17 7 0 10 -262144
-1 -1;
#X obj 259 789 spigot;
#X obj 337 813 bng 15 250 50 0 empty empty empty 17 7 0 10 -262144
-1 -1;
#X obj 337 790 spigot;
#X obj 101 769 r mb;
#X obj 177 768 r mb;
#X obj 259 765 r mb;
#X obj 337 767 r mb;
#X obj 140 726 r mf;
#X obj 216 726 r mf;
#X obj 298 725 r mf;
#X obj 376 724 r mf;
#X obj 416 811 bng 15 250 50 0 empty empty empty 17 7 0 10 -262144
-1 -1;
#X floatatom 455 769 2 0 0 0 - - -;
#X floatatom 528 769 2 0 0 0 - - -;
#X floatatom 612 766 2 0 0 0 - - -;
#X obj 416 790 spigot;
#X obj 489 812 bng 15 250 50 0 empty empty empty 17 7 0 10 -262144
-1 -1;
#X obj 489 790 spigot;
#X obj 574 809 bng 15 250 50 0 empty empty empty 17 7 0 10 -262144
-1 -1;
#X obj 574 786 spigot;
#X obj 416 766 r mb;
#X obj 489 766 r mb;
#X obj 574 762 r mb;
#X obj 455 723 r mf;
#X obj 528 724 r mf;
#X obj 612 720 r mf;
#X floatatom 376 767 2 0 0 0 - - -;
#X floatatom 59 770 2 0 0 0 - - -;
#X obj 20 815 bng 15 250 50 0 empty empty empty 17 7 0 10 -262144 -1
-1;
#X obj 20 792 spigot;
#X obj 20 769 r mb;
#X obj 59 725 r mf;
#X text 691 340 voices 0-7;
#X text 696 483 voices 8-15;
#X obj 27 687 s b16;
#X obj 103 687 s b17;
#X obj 185 685 s b18;
#X obj 263 685 s b19;
#X obj 342 683 s b20;
#X obj 415 683 s b21;
#X obj 497 682 s b22;
#X obj 575 683 s b23;
#X text 689 645 voices 16-23;
#X obj 20 834 s b24;
#X obj 101 832 s b25;
#X obj 177 832 s b26;
#X obj 259 830 s b27;
#X obj 337 830 s b28;
#X obj 416 829 s b29;
#X obj 489 830 s b30;
#X obj 574 826 s b31;
#X text 690 787 voices 24-31;
#X obj 66 603 == 16;
#X obj 142 603 == 17;
#X obj 224 600 == 18;
#X obj 302 599 == 19;
#X obj 381 600 == 20;
#X obj 454 601 == 21;
#X obj 535 599 == 22;
#X obj 614 597 == 23;
#X obj 59 747 == 24;
#X obj 140 749 == 25;
#X obj 216 749 == 26;
#X obj 298 746 == 27;
#X obj 376 745 == 28;
#X obj 455 746 == 29;
#X obj 528 747 == 30;
#X obj 612 744 == 31;
#X obj 35 169 mod 32;
#X obj 35 92 metro 100;
#X obj 77 192 s n-grain;
#X connect 0 0 110 0;
#X connect 1 0 2 0;
#X connect 1 0 3 0;
#X connect 2 0 1 1;
#X connect 3 0 244 0;
#X connect 4 0 11 0;
#X connect 5 0 10 0;
#X connect 6 0 8 0;
#X connect 7 0 9 0;
#X connect 8 0 12 1;
#X connect 9 0 14 1;
#X connect 10 0 16 1;
#X connect 11 0 22 0;
#X connect 11 1 27 0;
#X connect 12 0 0 0;
#X connect 13 0 111 0;
#X connect 14 0 13 0;
#X connect 15 0 112 0;
#X connect 16 0 15 0;
#X connect 17 0 244 1;
#X connect 19 0 113 0;
#X connect 20 0 19 0;
#X connect 21 0 245 1;
#X connect 23 0 12 0;
#X connect 24 0 14 0;
#X connect 25 0 16 0;
#X connect 26 0 20 0;
#X connect 28 0 6 0;
#X connect 29 0 7 0;
#X connect 30 0 5 0;
#X connect 31 0 95 0;
#X connect 32 0 114 0;
#X connect 33 0 36 1;
#X connect 34 0 38 1;
#X connect 35 0 40 1;
#X connect 36 0 32 0;
#X connect 37 0 115 0;
#X connect 38 0 37 0;
#X connect 39 0 116 0;
#X connect 40 0 39 0;
#X connect 41 0 43 1;
#X connect 42 0 117 0;
#X connect 43 0 42 0;
#X connect 44 0 36 0;
#X connect 45 0 38 0;
#X connect 46 0 40 0;
#X connect 47 0 43 0;
#X connect 48 0 96 0;
#X connect 49 0 97 0;
#X connect 50 0 98 0;
#X connect 51 0 99 0;
#X connect 52 0 20 1;
#X connect 53 0 119 0;
#X connect 54 0 57 1;
#X connect 55 0 59 1;
#X connect 56 0 61 1;
#X connect 57 0 53 0;
#X connect 58 0 120 0;
#X connect 59 0 58 0;
#X connect 60 0 121 0;
#X connect 61 0 60 0;
#X connect 62 0 122 0;
#X connect 63 0 62 0;
#X connect 64 0 57 0;
#X connect 65 0 59 0;
#X connect 66 0 61 0;
#X connect 67 0 63 0;
#X connect 68 0 88 0;
#X connect 69 0 89 0;
#X connect 70 0 90 0;
#X connect 71 0 91 0;
#X connect 72 0 123 0;
#X connect 73 0 76 1;
#X connect 74 0 78 1;
#X connect 75 0 80 1;
#X connect 76 0 72 0;
#X connect 77 0 124 0;
#X connect 78 0 77 0;
#X connect 79 0 125 0;
#X connect 80 0 79 0;
#X connect 81 0 76 0;
#X connect 82 0 78 0;
#X connect 83 0 80 0;
#X connect 84 0 92 0;
#X connect 85 0 93 0;
#X connect 86 0 94 0;
#X connect 87 0 63 1;
#X connect 88 0 54 0;
#X connect 89 0 55 0;
#X connect 90 0 56 0;
#X connect 91 0 87 0;
#X connect 92 0 73 0;
#X connect 93 0 74 0;
#X connect 94 0 75 0;
#X connect 95 0 52 0;
#X connect 96 0 33 0;
#X connect 97 0 34 0;
#X connect 98 0 35 0;
#X connect 99 0 41 0;
#X connect 100 0 102 1;
#X connect 101 0 118 0;
#X connect 102 0 101 0;
#X connect 103 0 102 0;
#X connect 104 0 105 0;
#X connect 105 0 100 0;
#X connect 106 0 126 0;
#X connect 107 0 21 0;
#X connect 126 0 245 0;
#X connect 127 0 17 0;
#X connect 128 0 210 0;
#X connect 129 0 132 1;
#X connect 130 0 134 1;
#X connect 131 0 136 1;
#X connect 132 0 128 0;
#X connect 133 0 211 0;
#X connect 134 0 133 0;
#X connect 135 0 212 0;
#X connect 136 0 135 0;
#X connect 137 0 213 0;
#X connect 138 0 137 0;
#X connect 139 0 132 0;
#X connect 140 0 134 0;
#X connect 141 0 136 0;
#X connect 142 0 138 0;
#X connect 143 0 228 0;
#X connect 144 0 229 0;
#X connect 145 0 230 0;
#X connect 146 0 231 0;
#X connect 147 0 214 0;
#X connect 148 0 151 1;
#X connect 149 0 153 1;
#X connect 150 0 155 1;
#X connect 151 0 147 0;
#X connect 152 0 215 0;
#X connect 153 0 152 0;
#X connect 154 0 216 0;
#X connect 155 0 154 0;
#X connect 156 0 158 1;
#X connect 157 0 217 0;
#X connect 158 0 157 0;
#X connect 159 0 151 0;
#X connect 160 0 153 0;
#X connect 161 0 155 0;
#X connect 162 0 158 0;
#X connect 163 0 232 0;
#X connect 164 0 233 0;
#X connect 165 0 234 0;
#X connect 166 0 235 0;
#X connect 167 0 138 1;
#X connect 168 0 220 0;
#X connect 169 0 172 1;
#X connect 170 0 174 1;
#X connect 171 0 176 1;
#X connect 172 0 168 0;
#X connect 173 0 221 0;
#X connect 174 0 173 0;
#X connect 175 0 222 0;
#X connect 176 0 175 0;
#X connect 177 0 223 0;
#X connect 178 0 177 0;
#X connect 179 0 172 0;
#X connect 180 0 174 0;
#X connect 181 0 176 0;
#X connect 182 0 178 0;
#X connect 183 0 237 0;
#X connect 184 0 238 0;
#X connect 185 0 239 0;
#X connect 186 0 240 0;
#X connect 187 0 224 0;
#X connect 188 0 191 1;
#X connect 189 0 193 1;
#X connect 190 0 195 1;
#X connect 191 0 187 0;
#X connect 192 0 225 0;
#X connect 193 0 192 0;
#X connect 194 0 226 0;
#X connect 195 0 194 0;
#X connect 196 0 191 0;
#X connect 197 0 193 0;
#X connect 198 0 195 0;
#X connect 199 0 241 0;
#X connect 200 0 242 0;
#X connect 201 0 243 0;
#X connect 202 0 178 1;
#X connect 203 0 205 1;
#X connect 204 0 219 0;
#X connect 205 0 204 0;
#X connect 206 0 205 0;
#X connect 207 0 236 0;
#X connect 228 0 129 0;
#X connect 229 0 130 0;
#X connect 230 0 131 0;
#X connect 231 0 167 0;
#X connect 232 0 148 0;
#X connect 233 0 149 0;
#X connect 234 0 150 0;
#X connect 235 0 156 0;
#X connect 236 0 203 0;
#X connect 237 0 169 0;
#X connect 238 0 170 0;
#X connect 239 0 171 0;
#X connect 240 0 202 0;
#X connect 241 0 188 0;
#X connect 242 0 189 0;
#X connect 243 0 190 0;
#X connect 244 0 4 0;
#X connect 244 0 246 0;
#X connect 245 0 1 0;
