#N canvas 1680 -714 2560 1395 12;
#X obj 35 92 metro 500;
#X obj 39 366 bng 15 250 50 0 empty empty empty 17 7 0 10 -262144 -1
-1;
#X obj 35 117 int 1;
#X obj 92 117 + 1;
#X floatatom 35 143 5 0 0 0 - - -;
#X floatatom 35 192 5 0 0 0 - - -;
#X obj 236 298 == 2;
#X obj 78 301 == 0;
#X obj 154 301 == 1;
#X floatatom 78 324 2 0 0 0 - - -;
#X floatatom 154 323 2 0 0 0 - - -;
#X floatatom 236 320 2 0 0 0 - - -;
#X obj 35 215 t b f, f 9;
#X obj 39 344 spigot;
#X obj 115 366 bng 15 250 50 0 empty empty empty 17 7 0 10 -262144
-1 -1;
#X obj 115 344 spigot;
#X obj 197 364 bng 15 250 50 0 empty empty empty 17 7 0 10 -262144
-1 -1;
#X obj 197 341 spigot;
#X floatatom 209 68 5 0 0 0 - - -;
#X text 207 24 no. voices;
#X obj 275 365 bng 15 250 50 0 empty empty empty 17 7 0 10 -262144
-1 -1;
#X obj 275 342 spigot;
#X floatatom 95 69 5 0 0 0 - - -;
#X obj 35 239 s mb;
#X obj 39 321 r mb;
#X obj 115 320 r mb;
#X obj 197 317 r mb;
#X obj 275 319 r mb;
#X obj 95 239 s mf;
#X obj 78 278 r mf;
#X obj 154 278 r mf;
#X obj 236 277 r mf;
#X obj 314 276 r mf;
#X obj 354 363 bng 15 250 50 0 empty empty empty 17 7 0 10 -262144
-1 -1;
#X floatatom 393 321 2 0 0 0 - - -;
#X floatatom 466 321 2 0 0 0 - - -;
#X floatatom 547 319 2 0 0 0 - - -;
#X obj 354 342 spigot;
#X obj 427 364 bng 15 250 50 0 empty empty empty 17 7 0 10 -262144
-1 -1;
#X obj 427 342 spigot;
#X obj 509 362 bng 15 250 50 0 empty empty empty 17 7 0 10 -262144
-1 -1;
#X obj 509 339 spigot;
#X floatatom 626 318 2 0 0 0 - - -;
#X obj 587 363 bng 15 250 50 0 empty empty empty 17 7 0 10 -262144
-1 -1;
#X obj 587 340 spigot;
#X obj 354 318 r mb;
#X obj 427 318 r mb;
#X obj 509 315 r mb;
#X obj 587 317 r mb;
#X obj 393 275 r mf;
#X obj 466 276 r mf;
#X obj 547 273 r mf;
#X obj 626 273 r mf;
#X floatatom 314 319 2 0 0 0 - - -;
#X obj 113 512 bng 15 250 50 0 empty empty empty 17 7 0 10 -262144
-1 -1;
#X floatatom 152 470 2 0 0 0 - - -;
#X floatatom 228 469 2 0 0 0 - - -;
#X floatatom 310 466 2 0 0 0 - - -;
#X obj 113 490 spigot;
#X obj 189 512 bng 15 250 50 0 empty empty empty 17 7 0 10 -262144
-1 -1;
#X obj 189 490 spigot;
#X obj 271 510 bng 15 250 50 0 empty empty empty 17 7 0 10 -262144
-1 -1;
#X obj 271 487 spigot;
#X obj 349 511 bng 15 250 50 0 empty empty empty 17 7 0 10 -262144
-1 -1;
#X obj 349 488 spigot;
#X obj 113 467 r mb;
#X obj 189 466 r mb;
#X obj 271 463 r mb;
#X obj 349 465 r mb;
#X obj 152 424 r mf;
#X obj 228 424 r mf;
#X obj 310 423 r mf;
#X obj 388 422 r mf;
#X obj 428 509 bng 15 250 50 0 empty empty empty 17 7 0 10 -262144
-1 -1;
#X floatatom 467 467 2 0 0 0 - - -;
#X floatatom 540 467 2 0 0 0 - - -;
#X floatatom 624 464 2 0 0 0 - - -;
#X obj 428 488 spigot;
#X obj 501 510 bng 15 250 50 0 empty empty empty 17 7 0 10 -262144
-1 -1;
#X obj 501 488 spigot;
#X obj 586 507 bng 15 250 50 0 empty empty empty 17 7 0 10 -262144
-1 -1;
#X obj 586 484 spigot;
#X obj 428 464 r mb;
#X obj 501 464 r mb;
#X obj 586 460 r mb;
#X obj 467 421 r mf;
#X obj 540 422 r mf;
#X obj 624 418 r mf;
#X floatatom 388 465 2 0 0 0 - - -;
#X obj 152 447 == 9;
#X obj 228 447 == 10;
#X obj 310 444 == 11;
#X obj 388 443 == 12;
#X obj 467 444 == 13;
#X obj 540 445 == 14;
#X obj 624 442 == 15;
#X obj 314 297 == 3;
#X obj 393 298 == 4;
#X obj 466 299 == 5;
#X obj 547 297 == 6;
#X obj 626 295 == 7;
#X floatatom 71 468 2 0 0 0 - - -;
#X obj 32 513 bng 15 250 50 0 empty empty empty 17 7 0 10 -262144 -1
-1;
#X obj 32 490 spigot;
#X obj 32 467 r mb;
#X obj 71 423 r mf;
#X obj 71 445 == 8;
#X obj 35 46 inlet;
#X obj 95 47 inlet;
#X text 33 27 on/off;
#X text 93 26 period (ms);
#X obj 39 385 s b0;
#X obj 115 385 s b1;
#X obj 197 383 s b2;
#X obj 275 383 s b3;
#X obj 354 381 s b4;
#X obj 427 381 s b5;
#X obj 509 380 s b6;
#X obj 587 381 s b7;
#X obj 32 532 s b8;
#X obj 113 530 s b9;
#X obj 189 530 s b10;
#X obj 271 528 s b11;
#X obj 349 528 s b12;
#X obj 428 527 s b13;
#X obj 501 528 s b14;
#X obj 586 525 s b15;
#X obj 35 72 tgl 15 0 empty empty empty 17 7 0 10 -262144 -1 -1 0 1
;
#X obj 209 45 inlet;
#X obj 35 169 mod 16;
#X connect 0 0 2 0;
#X connect 1 0 111 0;
#X connect 2 0 3 0;
#X connect 2 0 4 0;
#X connect 3 0 2 1;
#X connect 4 0 129 0;
#X connect 5 0 12 0;
#X connect 6 0 11 0;
#X connect 7 0 9 0;
#X connect 8 0 10 0;
#X connect 9 0 13 1;
#X connect 10 0 15 1;
#X connect 11 0 17 1;
#X connect 12 0 23 0;
#X connect 12 1 28 0;
#X connect 13 0 1 0;
#X connect 14 0 112 0;
#X connect 15 0 14 0;
#X connect 16 0 113 0;
#X connect 17 0 16 0;
#X connect 18 0 129 1;
#X connect 20 0 114 0;
#X connect 21 0 20 0;
#X connect 22 0 0 1;
#X connect 24 0 13 0;
#X connect 25 0 15 0;
#X connect 26 0 17 0;
#X connect 27 0 21 0;
#X connect 29 0 7 0;
#X connect 30 0 8 0;
#X connect 31 0 6 0;
#X connect 32 0 96 0;
#X connect 33 0 115 0;
#X connect 34 0 37 1;
#X connect 35 0 39 1;
#X connect 36 0 41 1;
#X connect 37 0 33 0;
#X connect 38 0 116 0;
#X connect 39 0 38 0;
#X connect 40 0 117 0;
#X connect 41 0 40 0;
#X connect 42 0 44 1;
#X connect 43 0 118 0;
#X connect 44 0 43 0;
#X connect 45 0 37 0;
#X connect 46 0 39 0;
#X connect 47 0 41 0;
#X connect 48 0 44 0;
#X connect 49 0 97 0;
#X connect 50 0 98 0;
#X connect 51 0 99 0;
#X connect 52 0 100 0;
#X connect 53 0 21 1;
#X connect 54 0 120 0;
#X connect 55 0 58 1;
#X connect 56 0 60 1;
#X connect 57 0 62 1;
#X connect 58 0 54 0;
#X connect 59 0 121 0;
#X connect 60 0 59 0;
#X connect 61 0 122 0;
#X connect 62 0 61 0;
#X connect 63 0 123 0;
#X connect 64 0 63 0;
#X connect 65 0 58 0;
#X connect 66 0 60 0;
#X connect 67 0 62 0;
#X connect 68 0 64 0;
#X connect 69 0 89 0;
#X connect 70 0 90 0;
#X connect 71 0 91 0;
#X connect 72 0 92 0;
#X connect 73 0 124 0;
#X connect 74 0 77 1;
#X connect 75 0 79 1;
#X connect 76 0 81 1;
#X connect 77 0 73 0;
#X connect 78 0 125 0;
#X connect 79 0 78 0;
#X connect 80 0 126 0;
#X connect 81 0 80 0;
#X connect 82 0 77 0;
#X connect 83 0 79 0;
#X connect 84 0 81 0;
#X connect 85 0 93 0;
#X connect 86 0 94 0;
#X connect 87 0 95 0;
#X connect 88 0 64 1;
#X connect 89 0 55 0;
#X connect 90 0 56 0;
#X connect 91 0 57 0;
#X connect 92 0 88 0;
#X connect 93 0 74 0;
#X connect 94 0 75 0;
#X connect 95 0 76 0;
#X connect 96 0 53 0;
#X connect 97 0 34 0;
#X connect 98 0 35 0;
#X connect 99 0 36 0;
#X connect 100 0 42 0;
#X connect 101 0 103 1;
#X connect 102 0 119 0;
#X connect 103 0 102 0;
#X connect 104 0 103 0;
#X connect 105 0 106 0;
#X connect 106 0 101 0;
#X connect 107 0 127 0;
#X connect 108 0 22 0;
#X connect 127 0 0 0;
#X connect 128 0 18 0;
#X connect 129 0 5 0;
