#N canvas 840 23 840 1005 12;
#N canvas 0 22 450 278 (subpatch) 0;
#X array \$0-array 389041 float 2;
#X coords 0 1 389041 -1 200 140 1 0 0;
#X restore 604 295 graph;
#X obj 610 183 soundfiler;
#X floatatom 610 214 10 0 0 0 - - -;
#X obj 606 441 hsl 200 15 0 1 0 0 empty empty empty -2 -8 0 10 -262144
-1 -1 3700 1;
#X obj 182 810 line~;
#X obj 266 259 t b b b;
#X obj 41 542 *;
#X obj 182 780 pack 0 0;
#X obj 109 592 +;
#X floatatom 127 475 12 0 0 0 - - -;
#X obj 127 498 t b f;
#X obj 355 645 line~;
#X obj 355 668 cos~;
#X obj 355 692 *~ -1;
#X obj 355 714 +~ 1;
#X obj 355 739 /~ 2;
#X obj 310 873 *~;
#X msg 322 621 0;
#X msg 355 600 1;
#X obj 355 621 pack 0 0;
#X obj 61 385 +;
#X floatatom 70 413 5 0 0 0 - - -;
#X obj 61 307 random 3;
#X obj 453 795 line~;
#X floatatom 472 711 5 0 1.57 0 - - -;
#X msg 453 772 \$1 20;
#X obj 287 932 *~;
#X obj 453 748 cos;
#X obj 509 747 sin;
#X msg 509 771 \$1 20;
#X obj 509 797 line~;
#X obj 377 933 *~;
#X obj 61 332 / 1000;
#X msg 604 461 \$1 20;
#X obj 604 487 line;
#X obj 49 69 inlet;
#X obj 149 67 inlet;
#X obj 287 959 throw~ mixL;
#X obj 221 70 inlet;
#X obj 394 66 inlet;
#X text 225 47 size;
#X obj 307 68 inlet;
#X text 308 44 start;
#X obj 663 96 f \$0;
#X obj 610 124 pack s f;
#X msg 610 153 read -resize \$1 \$2-array;
#X obj 590 66 inlet;
#X text 588 42 grain;
#X obj 377 959 throw~ mixR;
#X obj 476 67 inlet;
#X text 475 42 pan spray;
#X obj 473 566 random 157;
#X obj 473 591 / 100;
#X obj 472 684 + 0.785;
#X obj 472 656 *;
#X obj 473 616 - 0.785;
#X text 471 117 [0-1];
#X text 304 117 [0-1];
#X obj 189 451 *;
#X text 394 42 spray;
#X text 123 318 spray;
#X obj 182 837 tabread4~ \$0-array;
#X floatatom 451 346 8 0 0 0 - - -;
#X text 503 656 dynamic constant power panning;
#X text 103 712 stop;
#X text 34 712 start;
#X floatatom 25 738 8 0 0 0 - - -;
#X text 70 475 samples;
#X text 516 710 panning (left 0 right 1.57);
#X text 395 667 envelope;
#X obj 266 236 bng 15 250 50 0 empty empty empty 17 7 0 10 -262144
-1 -1;
#X obj 266 211 r \$0-trig;
#X obj 49 95 s \$0-trig;
#X obj 165 184 s \$0-pitch;
#X floatatom 87 739 8 0 0 0 - - -;
#X obj 221 95 s \$0-size;
#X obj 189 404 r \$0-size;
#X text 146 41 pitch;
#X obj 482 275 r \$0-pitch;
#X obj 394 93 s \$0-spray;
#X obj 159 210 r \$0-spray;
#X floatatom 159 235 5 0 0 0 - - -;
#X obj 40 263 r \$0-fileSize;
#X obj 307 94 s \$0-start;
#X obj 610 243 s \$0-fileSize;
#X obj 526 415 r \$0-start;
#X obj 604 511 s \$0-startIdx;
#X obj 79 358 r \$0-startIdx;
#X obj 197 428 r \$0-fileSize;
#X obj 204 629 *;
#X obj 229 486 samplerate~;
#X floatatom 204 652 8 0 0 0 - - -;
#X floatatom 229 510 5 0 0 0 - - -;
#X floatatom 215 607 8 0 0 0 - - -;
#X obj 211 584 /, f 7;
#X obj 229 462 loadbang;
#X obj 227 534 t b f;
#X msg 212 560 1;
#X obj 297 457 bng 15 250 50 0 empty empty empty 17 7 0 10 -262144
-1 -1;
#X text 143 650 size (s);
#X obj 161 678 s \$0-size-sec;
#X obj 450 276 *;
#X obj 449 247 r \$0-size-sec;
#X floatatom 450 299 5 0 0 0 - - -;
#X obj 450 321 * 1000;
#X floatatom 584 615 5 0 0 0 - - -;
#X floatatom 478 98 5 0 0 0 - - -;
#X obj 471 141 s \$0-pan;
#X obj 585 591 r \$0-pan;
#X obj 663 71 loadbang;
#X floatatom 94 216 5 0 0 0 - - -;
#X obj 150 91 t b f;
#X msg 150 113 1;
#X obj 164 136 /;
#X obj 150 159 * 1000;
#X connect 1 0 2 0;
#X connect 2 0 84 0;
#X connect 3 0 33 0;
#X connect 4 0 61 0;
#X connect 5 0 6 0;
#X connect 5 2 9 0;
#X connect 5 2 17 0;
#X connect 5 2 62 0;
#X connect 5 2 51 0;
#X connect 6 0 66 0;
#X connect 6 0 8 0;
#X connect 7 0 4 0;
#X connect 7 0 18 0;
#X connect 8 0 7 0;
#X connect 8 0 74 0;
#X connect 9 0 10 0;
#X connect 10 0 8 0;
#X connect 10 1 8 1;
#X connect 10 1 89 0;
#X connect 11 0 12 0;
#X connect 12 0 13 0;
#X connect 13 0 14 0;
#X connect 14 0 15 0;
#X connect 15 0 16 1;
#X connect 16 0 26 0;
#X connect 16 0 31 0;
#X connect 17 0 11 0;
#X connect 18 0 19 0;
#X connect 19 0 11 0;
#X connect 20 0 6 1;
#X connect 20 0 21 0;
#X connect 22 0 32 0;
#X connect 23 0 26 1;
#X connect 24 0 27 0;
#X connect 24 0 28 0;
#X connect 25 0 23 0;
#X connect 26 0 37 0;
#X connect 27 0 25 0;
#X connect 28 0 29 0;
#X connect 29 0 30 0;
#X connect 30 0 31 1;
#X connect 31 0 48 0;
#X connect 32 0 20 0;
#X connect 33 0 34 0;
#X connect 34 0 86 0;
#X connect 35 0 72 0;
#X connect 36 0 111 0;
#X connect 38 0 75 0;
#X connect 39 0 79 0;
#X connect 41 0 83 0;
#X connect 43 0 44 1;
#X connect 44 0 45 0;
#X connect 45 0 1 0;
#X connect 46 0 44 0;
#X connect 49 0 106 0;
#X connect 51 0 52 0;
#X connect 52 0 55 0;
#X connect 53 0 24 0;
#X connect 54 0 53 0;
#X connect 55 0 54 0;
#X connect 58 0 9 0;
#X connect 61 0 16 0;
#X connect 62 0 19 1;
#X connect 62 0 7 1;
#X connect 66 0 4 0;
#X connect 70 0 22 0;
#X connect 70 0 5 0;
#X connect 71 0 70 0;
#X connect 76 0 58 0;
#X connect 78 0 101 1;
#X connect 80 0 81 0;
#X connect 81 0 22 1;
#X connect 82 0 6 0;
#X connect 85 0 3 0;
#X connect 87 0 20 1;
#X connect 88 0 58 1;
#X connect 89 0 91 0;
#X connect 90 0 92 0;
#X connect 91 0 100 0;
#X connect 92 0 96 0;
#X connect 93 0 89 1;
#X connect 94 0 93 0;
#X connect 95 0 90 0;
#X connect 96 0 97 0;
#X connect 96 1 94 1;
#X connect 97 0 94 0;
#X connect 98 0 90 0;
#X connect 101 0 103 0;
#X connect 102 0 101 0;
#X connect 103 0 104 0;
#X connect 104 0 62 0;
#X connect 105 0 54 1;
#X connect 106 0 107 0;
#X connect 108 0 105 0;
#X connect 109 0 43 0;
#X connect 111 0 112 0;
#X connect 111 1 113 1;
#X connect 112 0 113 0;
#X connect 113 0 114 0;
#X connect 114 0 110 0;
#X connect 114 0 73 0;
