#N canvas 2960 -714 1280 1395 12;
#X obj 59 886 catch~ mixL;
#X obj 147 886 catch~ mixR;
#X obj 96 1000 dac~;
#X obj 341 53 hsl 128 15 0 1 0 0 empty empty empty -2 -8 0 10 -262144
-1 -1 9900 1;
#X obj 47 57 hsl 128 15 0 2 0 0 empty empty empty -2 -8 0 10 -262144
-1 -1 7000 1;
#X obj 191 56 hsl 128 15 0 0.1 0 0 empty empty empty -2 -8 0 10 -262144
-1 -1 12200 1;
#X text 218 34 size;
#X text 81 33 pitch;
#X text 362 29 pan spray;
#X obj 340 126 hsl 128 15 0 500 0 0 empty empty empty -2 -8 0 10 -262144
-1 -1 2600 1;
#X text 348 100 spray;
#X obj 196 130 hsl 128 15 0 1 0 0 empty empty empty -2 -8 0 10 -262144
-1 -1 4700 1;
#X text 217 107 start;
#X msg 605 54 grains/sax.wav;
#X obj 350 250 global-trigger, f 15;
#X obj 50 357 granular, f 48;
#X obj 50 336 bng 15 250 50 0 empty empty empty 17 7 0 10 -262144 -1
-1;
#X obj 50 314 r b0;
#X obj 350 230 tgl 15 0 empty empty empty 17 7 0 10 -262144 -1 -1 0
1;
#X obj 85 314 r pitch;
#X obj 141 314 r size;
#X obj 189 314 r start;
#X obj 245 314 r spray;
#X obj 301 314 r pan-spray;
#X obj 385 314 r grain;
#X obj 44 76 s pitch;
#X obj 187 78 s size;
#X obj 337 147 s spray;
#X obj 339 77 s pan-spray;
#X obj 191 154 s start;
#X obj 605 79 s grain;
#X obj 48 133 hsl 128 15 10 1000 0 0 empty empty empty -2 -8 0 10 -262144
-1 -1 700 1;
#X text 82 109 density;
#X obj 45 152 s density;
#X obj 400 223 r density;
#X floatatom 473 224 5 1 16 0 - - -;
#X text 516 222 no. voices;
#X obj 52 427 granular, f 48;
#X obj 52 406 bng 15 250 50 0 empty empty empty 17 7 0 10 -262144 -1
-1;
#X obj 87 384 r pitch;
#X obj 143 384 r size;
#X obj 191 384 r start;
#X obj 247 384 r spray;
#X obj 303 384 r pan-spray;
#X obj 387 384 r grain;
#X obj 53 495 granular, f 48;
#X obj 53 474 bng 15 250 50 0 empty empty empty 17 7 0 10 -262144 -1
-1;
#X obj 88 452 r pitch;
#X obj 144 452 r size;
#X obj 192 452 r start;
#X obj 248 452 r spray;
#X obj 304 452 r pan-spray;
#X obj 388 452 r grain;
#X obj 53 563 granular, f 48;
#X obj 53 542 bng 15 250 50 0 empty empty empty 17 7 0 10 -262144 -1
-1;
#X obj 88 520 r pitch;
#X obj 144 520 r size;
#X obj 192 520 r start;
#X obj 248 520 r spray;
#X obj 304 520 r pan-spray;
#X obj 388 520 r grain;
#X obj 54 630 granular, f 48;
#X obj 54 609 bng 15 250 50 0 empty empty empty 17 7 0 10 -262144 -1
-1;
#X obj 89 587 r pitch;
#X obj 145 587 r size;
#X obj 193 587 r start;
#X obj 249 587 r spray;
#X obj 305 587 r pan-spray;
#X obj 389 587 r grain;
#X obj 54 699 granular, f 48;
#X obj 54 678 bng 15 250 50 0 empty empty empty 17 7 0 10 -262144 -1
-1;
#X obj 89 656 r pitch;
#X obj 145 656 r size;
#X obj 193 656 r start;
#X obj 249 656 r spray;
#X obj 305 656 r pan-spray;
#X obj 389 656 r grain;
#X obj 55 768 granular, f 48;
#X obj 55 747 bng 15 250 50 0 empty empty empty 17 7 0 10 -262144 -1
-1;
#X obj 90 725 r pitch;
#X obj 146 725 r size;
#X obj 194 725 r start;
#X obj 250 725 r spray;
#X obj 306 725 r pan-spray;
#X obj 390 725 r grain;
#X obj 55 835 granular, f 48;
#X obj 55 814 bng 15 250 50 0 empty empty empty 17 7 0 10 -262144 -1
-1;
#X obj 90 792 r pitch;
#X obj 146 792 r size;
#X obj 194 792 r start;
#X obj 250 792 r spray;
#X obj 306 792 r pan-spray;
#X obj 390 792 r grain;
#X obj 52 384 r b1;
#X obj 53 452 r b2;
#X obj 53 520 r b3;
#X obj 54 587 r b4;
#X obj 54 656 r b5;
#X obj 55 725 r b6;
#X obj 55 792 r b7;
#X obj 465 356 granular, f 48;
#X obj 465 335 bng 15 250 50 0 empty empty empty 17 7 0 10 -262144
-1 -1;
#X obj 500 313 r pitch;
#X obj 556 313 r size;
#X obj 604 313 r start;
#X obj 660 313 r spray;
#X obj 716 313 r pan-spray;
#X obj 800 313 r grain;
#X obj 467 426 granular, f 48;
#X obj 467 405 bng 15 250 50 0 empty empty empty 17 7 0 10 -262144
-1 -1;
#X obj 502 383 r pitch;
#X obj 558 383 r size;
#X obj 606 383 r start;
#X obj 662 383 r spray;
#X obj 718 383 r pan-spray;
#X obj 802 383 r grain;
#X obj 468 494 granular, f 48;
#X obj 468 473 bng 15 250 50 0 empty empty empty 17 7 0 10 -262144
-1 -1;
#X obj 516 451 r pitch;
#X obj 572 451 r size;
#X obj 620 451 r start;
#X obj 676 451 r spray;
#X obj 732 451 r pan-spray;
#X obj 816 451 r grain;
#X obj 468 562 granular, f 48;
#X obj 468 541 bng 15 250 50 0 empty empty empty 17 7 0 10 -262144
-1 -1;
#X obj 513 519 r pitch;
#X obj 569 519 r size;
#X obj 617 519 r start;
#X obj 673 519 r spray;
#X obj 729 519 r pan-spray;
#X obj 813 519 r grain;
#X obj 469 629 granular, f 48;
#X obj 469 608 bng 15 250 50 0 empty empty empty 17 7 0 10 -262144
-1 -1;
#X obj 514 587 r pitch;
#X obj 570 587 r size;
#X obj 618 587 r start;
#X obj 674 587 r spray;
#X obj 730 587 r pan-spray;
#X obj 814 587 r grain;
#X obj 469 698 granular, f 48;
#X obj 469 677 bng 15 250 50 0 empty empty empty 17 7 0 10 -262144
-1 -1;
#X obj 515 655 r pitch;
#X obj 571 655 r size;
#X obj 619 655 r start;
#X obj 675 655 r spray;
#X obj 731 655 r pan-spray;
#X obj 815 655 r grain;
#X obj 470 767 granular, f 48;
#X obj 470 746 bng 15 250 50 0 empty empty empty 17 7 0 10 -262144
-1 -1;
#X obj 515 724 r pitch;
#X obj 571 724 r size;
#X obj 619 724 r start;
#X obj 675 724 r spray;
#X obj 731 724 r pan-spray;
#X obj 815 724 r grain;
#X obj 470 834 granular, f 48;
#X obj 470 813 bng 15 250 50 0 empty empty empty 17 7 0 10 -262144
-1 -1;
#X obj 516 791 r pitch;
#X obj 572 791 r size;
#X obj 620 791 r start;
#X obj 676 791 r spray;
#X obj 732 791 r pan-spray;
#X obj 816 791 r grain;
#X obj 465 313 r b8;
#X obj 467 383 r b9;
#X obj 468 451 r b10;
#X obj 468 519 r b11;
#X obj 469 586 r b12;
#X obj 469 655 r b13;
#X obj 470 724 r b14;
#X obj 470 791 r b15;
#X obj 501 129 line~;
#X floatatom 501 77 5 0 0 0 - - -;
#X obj 504 54 hsl 64 15 0 1 0 0 empty empty empty -2 -8 0 10 -262144
-1 -1 1100 1;
#X msg 501 103 \$1 20;
#X text 504 28 volume;
#X obj 501 156 throw~ volume;
#X obj 60 951 *~;
#X obj 147 951 *~;
#X obj 240 886 catch~ volume;
#X text 343 207 on/off;
#X connect 0 0 178 0;
#X connect 1 0 179 0;
#X connect 3 0 28 0;
#X connect 4 0 25 0;
#X connect 5 0 26 0;
#X connect 9 0 27 0;
#X connect 11 0 29 0;
#X connect 13 0 30 0;
#X connect 16 0 15 0;
#X connect 17 0 16 0;
#X connect 18 0 14 0;
#X connect 19 0 15 1;
#X connect 20 0 15 2;
#X connect 21 0 15 3;
#X connect 22 0 15 4;
#X connect 23 0 15 5;
#X connect 24 0 15 6;
#X connect 31 0 33 0;
#X connect 34 0 14 1;
#X connect 35 0 14 2;
#X connect 38 0 37 0;
#X connect 39 0 37 1;
#X connect 40 0 37 2;
#X connect 41 0 37 3;
#X connect 42 0 37 4;
#X connect 43 0 37 5;
#X connect 44 0 37 6;
#X connect 46 0 45 0;
#X connect 47 0 45 1;
#X connect 48 0 45 2;
#X connect 49 0 45 3;
#X connect 50 0 45 4;
#X connect 51 0 45 5;
#X connect 52 0 45 6;
#X connect 54 0 53 0;
#X connect 55 0 53 1;
#X connect 56 0 53 2;
#X connect 57 0 53 3;
#X connect 58 0 53 4;
#X connect 59 0 53 5;
#X connect 60 0 53 6;
#X connect 62 0 61 0;
#X connect 63 0 61 1;
#X connect 64 0 61 2;
#X connect 65 0 61 3;
#X connect 66 0 61 4;
#X connect 67 0 61 5;
#X connect 68 0 61 6;
#X connect 70 0 69 0;
#X connect 71 0 69 1;
#X connect 72 0 69 2;
#X connect 73 0 69 3;
#X connect 74 0 69 4;
#X connect 75 0 69 5;
#X connect 76 0 69 6;
#X connect 78 0 77 0;
#X connect 79 0 77 1;
#X connect 80 0 77 2;
#X connect 81 0 77 3;
#X connect 82 0 77 4;
#X connect 83 0 77 5;
#X connect 84 0 77 6;
#X connect 86 0 85 0;
#X connect 87 0 85 1;
#X connect 88 0 85 2;
#X connect 89 0 85 3;
#X connect 90 0 85 4;
#X connect 91 0 85 5;
#X connect 92 0 85 6;
#X connect 93 0 38 0;
#X connect 94 0 46 0;
#X connect 95 0 54 0;
#X connect 96 0 62 0;
#X connect 97 0 70 0;
#X connect 98 0 78 0;
#X connect 99 0 86 0;
#X connect 101 0 100 0;
#X connect 102 0 100 1;
#X connect 103 0 100 2;
#X connect 104 0 100 3;
#X connect 105 0 100 4;
#X connect 106 0 100 5;
#X connect 107 0 100 6;
#X connect 109 0 108 0;
#X connect 110 0 108 1;
#X connect 111 0 108 2;
#X connect 112 0 108 3;
#X connect 113 0 108 4;
#X connect 114 0 108 5;
#X connect 115 0 108 6;
#X connect 117 0 116 0;
#X connect 118 0 116 1;
#X connect 119 0 116 2;
#X connect 120 0 116 3;
#X connect 121 0 116 4;
#X connect 122 0 116 5;
#X connect 123 0 116 6;
#X connect 125 0 124 0;
#X connect 126 0 124 1;
#X connect 127 0 124 2;
#X connect 128 0 124 3;
#X connect 129 0 124 4;
#X connect 130 0 124 5;
#X connect 131 0 124 6;
#X connect 133 0 132 0;
#X connect 134 0 132 1;
#X connect 135 0 132 2;
#X connect 136 0 132 3;
#X connect 137 0 132 4;
#X connect 138 0 132 5;
#X connect 139 0 132 6;
#X connect 141 0 140 0;
#X connect 142 0 140 1;
#X connect 143 0 140 2;
#X connect 144 0 140 3;
#X connect 145 0 140 4;
#X connect 146 0 140 5;
#X connect 147 0 140 6;
#X connect 149 0 148 0;
#X connect 150 0 148 1;
#X connect 151 0 148 2;
#X connect 152 0 148 3;
#X connect 153 0 148 4;
#X connect 154 0 148 5;
#X connect 155 0 148 6;
#X connect 157 0 156 0;
#X connect 158 0 156 1;
#X connect 159 0 156 2;
#X connect 160 0 156 3;
#X connect 161 0 156 4;
#X connect 162 0 156 5;
#X connect 163 0 156 6;
#X connect 164 0 101 0;
#X connect 165 0 109 0;
#X connect 166 0 117 0;
#X connect 167 0 125 0;
#X connect 168 0 133 0;
#X connect 169 0 141 0;
#X connect 170 0 149 0;
#X connect 171 0 157 0;
#X connect 172 0 177 0;
#X connect 173 0 175 0;
#X connect 174 0 173 0;
#X connect 175 0 172 0;
#X connect 178 0 2 0;
#X connect 179 0 2 1;
#X connect 180 0 179 1;
#X connect 180 0 178 1;
