#N canvas 0 23 840 1005 12;
#N canvas 0 22 450 278 (subpatch) 0;
#X array \$0-array 95704 float 2;
#X coords 0 1 95704 -1 200 140 1 0 0;
#X restore 566 295 graph;
#X obj 572 183 soundfiler;
#X obj 572 243 s fileSize;
#X floatatom 572 214 10 0 0 0 - - -;
#X obj 568 441 hsl 200 15 0 1 0 0 empty empty empty -2 -8 0 10 -262144
-1 -1 10500 1;
#X obj 566 511 s startIdx;
#X obj 665 185 loadbang;
#X msg 665 211 4410;
#X obj 665 237 s maxLength;
#X obj 221 657 line~;
#X obj 172 411 t b b b;
#X obj 47 317 r startIdx;
#X obj 27 287 r fileSize;
#X obj 43 534 *;
#X obj 221 627 pack 0 0;
#X obj 221 579 +;
#X floatatom 201 479 12 0 0 0 - - -;
#X obj 200 516 t b f;
#X floatatom 379 435 5 0 0 0 - - -;
#X floatatom 221 603 10 0 0 0 - - -;
#X obj 170 288 tgl 15 0 empty empty empty 17 7 0 10 -262144 -1 -1 0
1;
#X obj 345 662 line~;
#X obj 345 692 cos~;
#X obj 345 716 *~ -1;
#X obj 345 741 +~ 1;
#X obj 345 771 /~ 2;
#X obj 251 796 *~;
#X obj 171 310 metro 10;
#X msg 419 568 0;
#X floatatom 231 282 5 0 0 0 - - -;
#X msg 352 580 1;
#X obj 349 626 pack 0 0;
#X obj 61 459 +;
#X floatatom 110 511 5 0 0 0 - - -;
#X obj 100 354 random 3;
#X floatatom 135 241 5 0 0 0 - - -;
#X obj 409 797 line~;
#X floatatom 449 710 5 0 1.57 0 - - -;
#X msg 409 774 \$1 20;
#X obj 316 837 *~;
#X obj 409 750 cos;
#X obj 465 749 sin;
#X msg 465 773 \$1 20;
#X obj 465 799 line~;
#X obj 402 835 *~;
#X obj 80 412 / 1000;
#X msg 566 461 \$1 20;
#X obj 566 487 line;
#X obj 27 70 inlet;
#X obj 135 68 inlet;
#X obj 188 68 inlet;
#X obj 316 868 throw~ mixL;
#X text 22 45 on/off;
#X text 136 42 speed;
#X obj 239 68 inlet;
#X obj 358 66 inlet;
#X text 188 42 pitch;
#X text 243 42 size;
#X obj 293 68 inlet;
#X obj 510 416 r start;
#X text 294 44 start;
#X obj 625 96 f \$0;
#X obj 606 65 loadbang;
#X obj 572 124 pack s f;
#X msg 572 153 read -resize \$1 \$2-array;
#X obj 552 66 inlet;
#X text 550 42 grain;
#X obj 221 684 tabread~ \$0-array;
#X obj 402 868 throw~ mixR;
#X obj 440 67 inlet;
#X text 439 42 pan spray;
#X obj 293 94 s start;
#X obj 504 553 random 157;
#X obj 504 578 / 100;
#X obj 84 71 inlet;
#X text 77 42 density;
#X text 237 258 density;
#X text 380 411 pitch;
#X text 165 480 size;
#X text 564 734 problem i think is that when the next grain starts
playing the previous grain \, if it hasn't finished \, gets cut off.
how can we make it continue playing out?;
#X obj 472 680 + 0.785;
#X obj 498 648 *;
#X obj 504 604 - 0.785;
#X obj 565 603 r pan_spray;
#X obj 440 93 s pan_spray;
#X text 435 117 [0-1];
#X text 290 117 [0-1];
#X obj 340 335 hsl 128 15 0 1 0 0 empty empty empty -2 -8 0 10 -262144
-1 -1 4600 1;
#X obj 310 306 r fileSize;
#X obj 321 362 *;
#X text 197 911 we need to normalize pitch so that chaning length keeps
it the smame;
#X text 358 42 spray;
#X text 123 222 spray;
#X connect 1 0 3 0;
#X connect 3 0 2 0;
#X connect 4 0 46 0;
#X connect 6 0 7 0;
#X connect 7 0 8 0;
#X connect 9 0 67 0;
#X connect 10 0 13 0;
#X connect 10 1 18 0;
#X connect 10 2 16 0;
#X connect 10 2 28 0;
#X connect 11 0 32 1;
#X connect 12 0 13 0;
#X connect 13 0 9 0;
#X connect 13 0 15 0;
#X connect 14 0 9 0;
#X connect 14 0 30 0;
#X connect 15 0 19 0;
#X connect 16 0 17 0;
#X connect 17 0 15 0;
#X connect 17 1 15 1;
#X connect 18 0 14 1;
#X connect 18 0 31 1;
#X connect 19 0 14 0;
#X connect 20 0 27 0;
#X connect 21 0 22 0;
#X connect 22 0 23 0;
#X connect 23 0 24 0;
#X connect 24 0 25 0;
#X connect 25 0 26 1;
#X connect 26 0 39 0;
#X connect 26 0 44 0;
#X connect 27 0 10 0;
#X connect 27 0 34 0;
#X connect 27 0 72 0;
#X connect 28 0 21 0;
#X connect 29 0 27 1;
#X connect 30 0 31 0;
#X connect 31 0 21 0;
#X connect 32 0 13 1;
#X connect 32 0 33 0;
#X connect 34 0 45 0;
#X connect 35 0 34 1;
#X connect 36 0 39 1;
#X connect 37 0 40 0;
#X connect 37 0 41 0;
#X connect 38 0 36 0;
#X connect 39 0 51 0;
#X connect 40 0 38 0;
#X connect 41 0 42 0;
#X connect 42 0 43 0;
#X connect 43 0 44 1;
#X connect 44 0 68 0;
#X connect 45 0 32 0;
#X connect 46 0 47 0;
#X connect 47 0 5 0;
#X connect 58 0 71 0;
#X connect 59 0 4 0;
#X connect 61 0 63 1;
#X connect 62 0 61 0;
#X connect 62 0 63 0;
#X connect 63 0 64 0;
#X connect 64 0 1 0;
#X connect 65 0 63 0;
#X connect 67 0 26 0;
#X connect 69 0 84 0;
#X connect 72 0 73 0;
#X connect 73 0 82 0;
#X connect 80 0 37 0;
#X connect 81 0 80 0;
#X connect 82 0 81 0;
#X connect 83 0 81 1;
#X connect 87 0 89 0;
#X connect 88 0 89 1;
#X connect 89 0 16 0;
