#N canvas 0 23 840 1005 12;
#X obj 183 666 catch~ mixL;
#X obj 271 666 catch~ mixR;
#X obj 225 703 dac~;
#X obj 521 49 hsl 128 15 0 1 0 0 empty empty empty -2 -8 0 10 -262144
-1 -1 12700 1;
#X obj 225 257 metro 500;
#X obj 71 621 bng 15 250 50 0 empty empty empty 17 7 0 10 -262144 -1
-1;
#X obj 225 282 int 1;
#X obj 302 282 + 1;
#X text 335 282 increment amount;
#X floatatom 225 308 5 0 0 0 - - -;
#X obj 178 255 tgl 15 0 empty empty empty 17 7 0 10 -262144 -1 -1 1
1;
#X floatatom 225 357 5 0 0 0 - - -;
#X obj 225 334 mod 3;
#X obj 251 517 == 2;
#X obj 113 519 == 0;
#X obj 185 519 == 1;
#X floatatom 109 563 5 0 0 0 - - -;
#X floatatom 197 556 5 0 0 0 - - -;
#X floatatom 276 551 5 0 0 0 - - -;
#X obj 195 395 t b f;
#X obj 70 587 spigot;
#X obj 155 619 bng 15 250 50 0 empty empty empty 17 7 0 10 -262144
-1 -1;
#X obj 154 585 spigot;
#X obj 254 618 bng 15 250 50 0 empty empty empty 17 7 0 10 -262144
-1 -1;
#X obj 252 584 spigot;
#X floatatom 278 312 5 0 0 0 - - -;
#X text 333 310 no. voices;
#X floatatom 356 553 5 0 0 0 - - -;
#X floatatom 442 547 5 0 0 0 - - -;
#X obj 343 616 bng 15 250 50 0 empty empty empty 17 7 0 10 -262144
-1 -1;
#X obj 342 582 spigot;
#X obj 420 614 bng 15 250 50 0 empty empty empty 17 7 0 10 -262144
-1 -1;
#X obj 418 580 spigot;
#X obj 344 516 == 3;
#X obj 417 513 == 4;
#X obj 47 57 hsl 128 15 0 2 0 0 empty empty empty -2 -8 0 10 -262144
-1 -1 7300 1;
#X floatatom 295 234 5 0 0 0 - - -;
#X obj 163 203 granular, f 29;
#X obj 392 198 granular, f 29;
#X obj 191 56 hsl 128 15 0 0.1 0 0 empty empty empty -2 -8 0 10 -262144
-1 -1 12700 1;
#X text 198 33 size;
#X text 63 25 pitch;
#X text 543 27 pan spray;
#X obj 612 197 granular, f 29;
#X obj 839 196 granular, f 29;
#X obj 1060 193 granular, f 29;
#X obj 354 57 hsl 128 15 0 500 0 0 empty empty empty -2 -8 0 10 -262144
-1 -1 200 1;
#X text 362 28 spray;
#X obj 668 49 hsl 128 15 0 1 0 0 empty empty empty -2 -8 0 10 -262144
-1 -1 5500 1;
#X text 677 26 start;
#X msg 1079 32 grains/gsteps_short.wav;
#X connect 0 0 2 0;
#X connect 1 0 2 1;
#X connect 3 0 44 5;
#X connect 3 0 38 5;
#X connect 3 0 37 5;
#X connect 3 0 45 5;
#X connect 3 0 43 5;
#X connect 4 0 6 0;
#X connect 6 0 7 0;
#X connect 6 0 9 0;
#X connect 7 0 6 1;
#X connect 9 0 12 0;
#X connect 10 0 4 0;
#X connect 11 0 19 0;
#X connect 12 0 11 0;
#X connect 13 0 18 0;
#X connect 14 0 16 0;
#X connect 15 0 17 0;
#X connect 16 0 20 1;
#X connect 17 0 22 1;
#X connect 18 0 24 1;
#X connect 19 0 20 0;
#X connect 19 0 22 0;
#X connect 19 0 24 0;
#X connect 19 0 30 0;
#X connect 19 0 32 0;
#X connect 19 1 14 0;
#X connect 19 1 15 0;
#X connect 19 1 13 0;
#X connect 19 1 33 0;
#X connect 19 1 34 0;
#X connect 20 0 5 0;
#X connect 20 0 37 0;
#X connect 22 0 21 0;
#X connect 22 0 38 0;
#X connect 24 0 23 0;
#X connect 24 0 43 0;
#X connect 25 0 12 1;
#X connect 27 0 30 1;
#X connect 28 0 32 1;
#X connect 30 0 29 0;
#X connect 30 0 44 0;
#X connect 32 0 31 0;
#X connect 32 0 45 0;
#X connect 33 0 27 0;
#X connect 34 0 28 0;
#X connect 35 0 44 1;
#X connect 35 0 38 1;
#X connect 35 0 37 1;
#X connect 35 0 45 1;
#X connect 35 0 43 1;
#X connect 36 0 4 1;
#X connect 39 0 44 2;
#X connect 39 0 38 2;
#X connect 39 0 37 2;
#X connect 39 0 45 2;
#X connect 39 0 43 2;
#X connect 46 0 44 4;
#X connect 46 0 38 4;
#X connect 46 0 37 4;
#X connect 46 0 45 4;
#X connect 46 0 43 4;
#X connect 48 0 44 3;
#X connect 48 0 38 3;
#X connect 48 0 37 3;
#X connect 48 0 43 3;
#X connect 48 0 45 3;
#X connect 50 0 44 6;
#X connect 50 0 38 6;
#X connect 50 0 37 6;
#X connect 50 0 45 6;
#X connect 50 0 43 6;
