#N canvas 447 86 804 885 12;
#N canvas 0 22 450 278 (subpatch) 0;
#X array file1 95704 float 2;
#X coords 0 1 95704 -1 200 140 1 0 0;
#X restore 377 198 graph;
#X obj 383 86 soundfiler;
#X obj 383 146 s fileSize;
#X floatatom 383 117 10 0 0 0 - - -;
#X obj 377 350 hsl 200 15 0 1 0 0 empty empty empty -2 -8 0 10 -262144
-1 -1 17300 1;
#X obj 320 318 r start;
#X obj 374 375 s startIdx;
#X obj 476 88 loadbang;
#X msg 476 114 4410;
#X obj 476 140 s maxLength;
#X obj 383 30 bng 15 250 50 0 empty empty empty 17 7 0 10 -262144 -1
-1;
#X obj 248 831 dac~;
#X obj 220 684 tabread~ file1;
#X obj 221 657 line~;
#X obj 172 411 t b b b;
#X obj 154 489 r startIdx;
#X obj 154 462 r fileSize;
#X obj 109 507 *;
#X obj 221 627 pack 0 0;
#X obj 221 579 +;
#X floatatom 251 474 5 0 0 0 - - -;
#X obj 251 497 t b f;
#X floatatom 371 474 5 0 0 0 - - -;
#X text 290 476 length;
#X text 413 474 time (ms);
#X floatatom 221 603 10 0 0 0 - - -;
#X obj 170 361 tgl 15 0 empty empty empty 17 7 0 10 -262144 -1 -1 1
1;
#X obj 345 662 line~;
#X obj 345 692 cos~;
#X obj 345 716 *~ -1;
#X obj 345 741 +~ 1;
#X obj 345 771 /~ 2;
#X obj 251 796 *~;
#X obj 171 383 metro 10;
#X msg 419 568 0;
#X floatatom 231 355 5 0 0 0 - - -;
#X msg 383 55 read -resize grains/gsteps_short.wav file1;
#X msg 352 580 1;
#X obj 349 626 pack 0 0;
#X connect 1 0 3 0;
#X connect 3 0 2 0;
#X connect 4 0 6 0;
#X connect 5 0 4 0;
#X connect 7 0 8 0;
#X connect 8 0 9 0;
#X connect 10 0 36 0;
#X connect 12 0 32 0;
#X connect 13 0 12 0;
#X connect 14 0 17 0;
#X connect 14 1 22 0;
#X connect 14 2 20 0;
#X connect 14 2 34 0;
#X connect 15 0 17 1;
#X connect 16 0 17 0;
#X connect 17 0 13 0;
#X connect 17 0 19 0;
#X connect 18 0 13 0;
#X connect 18 0 37 0;
#X connect 19 0 25 0;
#X connect 20 0 21 0;
#X connect 21 0 19 0;
#X connect 21 1 19 1;
#X connect 22 0 18 1;
#X connect 22 0 38 1;
#X connect 25 0 18 0;
#X connect 26 0 33 0;
#X connect 27 0 28 0;
#X connect 28 0 29 0;
#X connect 29 0 30 0;
#X connect 30 0 31 0;
#X connect 31 0 32 1;
#X connect 32 0 11 0;
#X connect 32 0 11 1;
#X connect 33 0 14 0;
#X connect 34 0 27 0;
#X connect 35 0 33 1;
#X connect 36 0 1 0;
#X connect 37 0 38 0;
#X connect 38 0 27 0;
