#N canvas 125 190 663 394 12;
#X obj 25 158 s load-grain;
#X obj 25 108 metro 50;
#X obj 25 134 bng 15 250 50 0 empty empty empty 0 -6 0 8 -262144 -1
-1;
#X obj 25 86 tgl 15 0 empty empty empty 0 -6 0 8 -262144 -1 -1 0 1
;
#X obj 25 58 r enable;
#X obj 89 108 random 100;
#X obj 154 58 * 60000;
#X obj 97 58 * 60000;
#X obj 129 83 + 1;
#X floatatom 118 158 12 0 0 0 - - -;
#X obj 75 31 r min-swap;
#X obj 155 31 r max-swap;
#X obj 209 232 s grain-swap;
#X obj 246 59 metro 1000;
#X obj 246 33 r enable;
#X obj 256 140 bng 15 250 50 0 empty empty empty 17 7 0 10 -262144
-1 -1;
#X obj 246 112 int 1;
#X floatatom 246 159 5 0 0 0 - - -;
#X obj 294 111 + 1;
#X obj 246 90 bng 15 250 50 0 empty empty empty 17 7 0 10 -262144 -1
-1;
#X text 322 83 reset;
#X text 331 112 increment amount;
#X msg 278 84 1, f 4;
#X obj 90 130 / 1000;
#X obj 209 207 -;
#X text 207 254 seconds til grain is changed;
#X obj 246 181 t f b;
#X obj 326 58 r load-grain;
#X connect 1 0 2 0;
#X connect 1 0 5 0;
#X connect 2 0 0 0;
#X connect 3 0 1 0;
#X connect 4 0 3 0;
#X connect 4 0 8 0;
#X connect 5 0 1 1;
#X connect 5 0 23 0;
#X connect 6 0 8 1;
#X connect 7 0 8 0;
#X connect 8 0 5 1;
#X connect 9 0 24 0;
#X connect 10 0 7 0;
#X connect 11 0 6 0;
#X connect 13 0 19 0;
#X connect 14 0 13 0;
#X connect 14 0 22 0;
#X connect 16 0 17 0;
#X connect 16 0 18 0;
#X connect 16 0 15 0;
#X connect 17 0 26 0;
#X connect 18 0 16 1;
#X connect 19 0 16 0;
#X connect 22 0 16 1;
#X connect 23 0 9 0;
#X connect 24 0 12 0;
#X connect 26 0 24 1;
#X connect 26 1 24 0;
#X connect 27 0 22 0;
