#N canvas 808 23 840 1005 12;
#X declare -path maxlib;
#N canvas 0 22 450 278 (subpatch) 0;
#X array \$0-array 460601 float 2;
#X coords 0 1 460601 -1 200 140 1 0 0;
#X restore 604 295 graph;
#X obj 610 183 soundfiler;
#X floatatom 610 214 10 0 0 0 - - -;
#X obj 606 441 hsl 200 15 0 1 0 0 empty empty empty -2 -8 0 10 -262144
-1 -1 0 1;
#X obj 182 810 line~;
#X obj 272 235 t b b b;
#X obj 97 486 *;
#X obj 182 780 pack 0 0;
#X obj 144 590 +;
#X floatatom 193 484 12 0 0 0 - - -;
#X obj 182 507 t b f;
#X obj 395 727 line~;
#X obj 395 750 cos~;
#X obj 395 774 *~ -1;
#X obj 395 796 +~ 1;
#X obj 395 821 /~ 2;
#X obj 346 876 *~;
#X msg 362 703 0;
#X msg 395 682 1;
#X obj 395 703 pack 0 0;
#X obj 111 408 +;
#X floatatom 122 434 5 0 0 0 - - -;
#X obj 534 836 line~;
#X floatatom 542 750 5 0 1.57 0 - - -;
#X msg 534 810 \$1 20;
#X obj 287 932 *~;
#X obj 534 785 cos;
#X obj 579 786 sin;
#X msg 579 810 \$1 20;
#X obj 579 836 line~;
#X obj 377 933 *~;
#X obj 77 349 / 1000;
#X msg 604 461 \$1 20;
#X obj 604 487 line;
#X obj 49 69 inlet;
#X obj 149 67 inlet;
#X obj 287 959 throw~ mixL;
#X obj 221 70 inlet;
#X obj 394 66 inlet;
#X text 225 47 size;
#X obj 307 68 inlet;
#X text 310 46 start;
#X obj 663 96 f \$0;
#X obj 610 124 pack s f;
#X msg 610 153 read -resize \$1 \$2-array;
#X obj 610 94 inlet;
#X text 611 70 grain;
#X obj 377 959 throw~ mixR;
#X obj 476 67 inlet;
#X text 475 42 pan spray;
#X obj 543 605 random 157;
#X obj 543 630 / 100;
#X obj 542 723 + 0.785;
#X obj 542 695 *;
#X obj 543 655 - 0.785;
#X text 472 145 [0-1];
#X text 304 117 [0-1];
#X obj 255 460 *;
#X text 394 42 spray;
#X text 152 292 spray;
#X obj 182 837 tabread4~ \$0-array;
#X floatatom 400 388 8 0 0 0 - - -;
#X text 573 695 dynamic constant power panning;
#X text 114 704 stop;
#X text 47 700 start;
#X floatatom 39 725 8 0 0 0 - - -;
#X text 228 504 samples;
#X text 586 749 panning (left 0 right 1.57);
#X obj 272 213 bng 15 250 50 0 empty empty empty 17 7 0 10 -262144
-1 -1;
#X obj 272 187 r \$0-trig;
#X obj 49 95 s \$0-trig;
#X obj 164 182 s \$0-pitch;
#X floatatom 99 726 8 0 0 0 - - -;
#X obj 221 95 s \$0-size;
#X obj 255 415 r \$0-size;
#X text 149 46 pitch;
#X obj 430 320 r \$0-pitch;
#X obj 394 93 s \$0-spray;
#X obj 113 268 r \$0-spray;
#X floatatom 113 293 5 0 0 0 - - -;
#X obj 9 423 r \$0-fileSize;
#X obj 307 94 s \$0-start;
#X obj 610 243 s \$0-fileSize;
#X obj 526 415 r \$0-start;
#X obj 604 511 s \$0-startIdx;
#X obj 129 379 r \$0-startIdx;
#X obj 268 437 r \$0-fileSize;
#X obj 260 632 *;
#X obj 285 489 samplerate~;
#X floatatom 260 655 8 0 0 0 - - -;
#X floatatom 285 513 5 0 0 0 - - -;
#X floatatom 271 610 8 0 0 0 - - -;
#X obj 267 587 /, f 7;
#X obj 285 465 loadbang;
#X obj 283 537 t b f;
#X msg 268 563 1;
#X text 197 653 size (s);
#X obj 221 677 s \$0-size-sec;
#X obj 400 320 *;
#X obj 400 296 r \$0-size-sec;
#X floatatom 400 343 5 0 0 0 - - -;
#X obj 400 365 * 1000;
#X floatatom 621 656 5 0 0 0 - - -;
#X floatatom 476 94 5 0 0 0 - - -;
#X obj 476 119 s \$0-pan;
#X obj 621 634 r \$0-pan;
#X obj 663 71 loadbang;
#X floatatom 124 183 5 0 0 0 - - -;
#X obj 150 91 t b f;
#X msg 150 113 1;
#X obj 164 136 /;
#X obj 150 159 * 1000;
#X obj 712 245 s set-default;
#X obj 712 212 t b;
#X text 599 722 with pan control = 0 we get center;
#X text 367 630 simple envelope;
#X text 50 160 convert pitch;
#X obj 33 269 r \$0-trig;
#X obj 318 258 s \$0-bang3;
#X obj 322 365 r \$0-bang3;
#X obj 365 656 r \$0-bang3;
#X obj 176 458 r \$0-bang3;
#X obj 543 579 r \$0-bang3;
#X text 225 808 we play back the grain;
#X obj 400 411 s \$0-playback;
#X obj 427 681 r \$0-playback;
#X obj 247 778 r \$0-playback;
#X obj 273 281 s \$0-bang1;
#X text 347 465 here we calc the grain size;
#X text 331 510 currently it is relative to the totalsize of the input
audio file but this may change....;
#X obj 8 401 r \$0-bang1;
#X text 292 210 main bang starts everything here;
#X text 20 247 spray randomly shifts start;
#X text 130 357 range from 0 to 1;
#X text 15 478 convert to samples;
#X obj 611 30 declare -path maxlib;
#X obj 77 326 gauss 0 0;
#X floatatom 39 375 5 0 0 0 - - -;
#X floatatom 151 406 5 0 0 0 - - -;
#X connect 1 0 2 0;
#X connect 1 0 113 0;
#X connect 2 0 82 0;
#X connect 3 0 32 0;
#X connect 4 0 60 0;
#X connect 5 0 127 0;
#X connect 5 2 118 0;
#X connect 6 0 65 0;
#X connect 6 0 8 0;
#X connect 7 0 4 0;
#X connect 7 0 18 0;
#X connect 8 0 7 0;
#X connect 8 0 72 0;
#X connect 9 0 10 0;
#X connect 10 0 8 0;
#X connect 10 1 8 1;
#X connect 10 1 87 0;
#X connect 11 0 12 0;
#X connect 12 0 13 0;
#X connect 13 0 14 0;
#X connect 14 0 15 0;
#X connect 15 0 16 1;
#X connect 16 0 25 0;
#X connect 16 0 30 0;
#X connect 17 0 11 0;
#X connect 18 0 19 0;
#X connect 19 0 11 0;
#X connect 20 0 6 1;
#X connect 20 0 21 0;
#X connect 22 0 25 1;
#X connect 23 0 26 0;
#X connect 23 0 27 0;
#X connect 24 0 22 0;
#X connect 25 0 36 0;
#X connect 26 0 24 0;
#X connect 27 0 28 0;
#X connect 28 0 29 0;
#X connect 29 0 30 1;
#X connect 30 0 47 0;
#X connect 31 0 20 0;
#X connect 32 0 33 0;
#X connect 33 0 84 0;
#X connect 34 0 70 0;
#X connect 35 0 108 0;
#X connect 37 0 73 0;
#X connect 38 0 77 0;
#X connect 40 0 81 0;
#X connect 42 0 43 1;
#X connect 43 0 44 0;
#X connect 44 0 1 0;
#X connect 45 0 43 0;
#X connect 48 0 103 0;
#X connect 50 0 51 0;
#X connect 51 0 54 0;
#X connect 52 0 23 0;
#X connect 53 0 52 0;
#X connect 54 0 53 0;
#X connect 57 0 9 0;
#X connect 60 0 16 0;
#X connect 61 0 124 0;
#X connect 65 0 4 0;
#X connect 68 0 5 0;
#X connect 69 0 68 0;
#X connect 74 0 57 0;
#X connect 76 0 98 1;
#X connect 78 0 79 0;
#X connect 79 0 136 1;
#X connect 80 0 6 0;
#X connect 83 0 3 0;
#X connect 85 0 20 1;
#X connect 85 0 138 0;
#X connect 86 0 57 1;
#X connect 87 0 89 0;
#X connect 88 0 90 0;
#X connect 89 0 97 0;
#X connect 90 0 94 0;
#X connect 91 0 87 1;
#X connect 92 0 91 0;
#X connect 93 0 88 0;
#X connect 94 0 95 0;
#X connect 94 1 92 1;
#X connect 95 0 92 0;
#X connect 98 0 100 0;
#X connect 99 0 98 0;
#X connect 100 0 101 0;
#X connect 101 0 61 0;
#X connect 102 0 53 1;
#X connect 103 0 104 0;
#X connect 105 0 102 0;
#X connect 106 0 42 0;
#X connect 108 0 109 0;
#X connect 108 1 110 1;
#X connect 109 0 110 0;
#X connect 110 0 111 0;
#X connect 111 0 107 0;
#X connect 111 0 71 0;
#X connect 113 0 112 0;
#X connect 117 0 136 0;
#X connect 119 0 61 0;
#X connect 120 0 17 0;
#X connect 121 0 9 0;
#X connect 122 0 50 0;
#X connect 125 0 19 1;
#X connect 126 0 7 1;
#X connect 130 0 6 0;
#X connect 136 0 31 0;
#X connect 136 0 137 0;
