#N canvas 194 274 761 597 12;
#N canvas 0 22 450 278 (subpatch) 0;
#X array array1 460601 float 2;
#X coords 0 1 460601 -1 200 140 1 0 0;
#X restore 43 149 graph;
#X obj 262 153 r grain;
#X obj 262 264 soundfiler;
#X floatatom 262 295 10 0 0 0 - - -;
#X obj 319 177 f \$0;
#X obj 262 205 pack s f;
#X text 264 129 grain;
#X obj 319 152 loadbang;
#X obj 45 318 bng 15 250 50 0 empty empty empty 17 7 0 10 -262144 -1
-1;
#X obj 45 295 r play;
#X obj 45 418 throw~ mixL;
#X obj 133 417 throw~ mixR;
#X obj 45 338 tabplay~ array1;
#X msg 262 234 read -resize \$1 array1;
#X obj 260 460 s fileSize;
#X obj 385 282 samplerate~;
#X floatatom 385 306 5 0 0 0 - - -;
#X floatatom 367 404 8 0 0 0 - - -;
#X obj 367 380 /, f 7;
#X obj 385 258 loadbang;
#X obj 383 330 t b f;
#X msg 368 356 1;
#X obj 343 460 s fileSeconds;
#X obj 343 430 *;
#X floatatom 382 431 5 0 0 0 - - -;
#X msg 98 314 stop;
#X obj 98 293 r stop;
#X connect 1 0 5 0;
#X connect 2 0 3 0;
#X connect 3 0 23 0;
#X connect 3 0 14 0;
#X connect 4 0 5 1;
#X connect 5 0 13 0;
#X connect 7 0 4 0;
#X connect 8 0 12 0;
#X connect 9 0 8 0;
#X connect 12 0 10 0;
#X connect 12 0 11 0;
#X connect 13 0 2 0;
#X connect 15 0 16 0;
#X connect 16 0 20 0;
#X connect 17 0 23 1;
#X connect 18 0 17 0;
#X connect 19 0 15 0;
#X connect 20 0 21 0;
#X connect 20 1 18 1;
#X connect 21 0 18 0;
#X connect 23 0 22 0;
#X connect 23 0 24 0;
#X connect 25 0 12 0;
#X connect 26 0 25 0;
