#N canvas 18 461 840 491 12;
#X obj 64 17 mrpeach/udpreceive 4242;
#X obj 63 55 mrpeach/unpackOSC;
#X obj 76 117 print;
#X floatatom 63 177 5 0 0 0 - - -;
#X obj 63 226 s start;
#X obj 63 201 / 100;
#X obj 513 107 mrpeach/routeOSC /grains;
#X obj 471 179 print;
#X obj 63 91 mrpeach/routeOSC /sliders;
#X floatatom 118 265 5 0 0 0 - - -;
#X obj 118 314 s density;
#X floatatom 137 182 5 0 0 0 - - -;
#X obj 137 231 s spray;
#X floatatom 205 267 5 0 0 0 - - -;
#X floatatom 212 179 5 0 0 0 - - -;
#X obj 205 316 s pitch;
#X obj 213 229 s load-grain;
#X floatatom 278 268 5 0 0 0 - - -;
#X obj 278 317 s size;
#X obj 118 289 / 2;
#X obj 137 206 * 1.2;
#X obj 205 291 * 20;
#X obj 278 292 / 1000;
#X obj 515 394 cyclone/coll;
#C restore;
#X msg 515 367 \$1 \$2;
#X obj 515 419 s grain;
#X obj 419 289 r load-grain;
#X obj 525 288 bng 15 250 50 0 empty empty empty 17 7 0 10 -262144
-1 -1;
#X obj 515 260 int 1;
#X floatatom 515 307 5 0 0 0 - - -;
#X obj 563 259 + 1;
#X obj 515 238 bng 15 250 50 0 empty empty empty 17 7 0 10 -262144
-1 -1;
#X text 591 231 reset;
#X text 600 260 increment amount;
#X msg 547 232 1, f 4;
#X obj 515 203 t b s;
#X obj 515 336 pack f s, f 20;
#X obj 213 204 t b;
#X obj 429 419 print grain;
#X obj 474 312 bng 15 250 50 0 empty empty empty 17 7 0 10 -262144
-1 -1;
#X floatatom 447 380 5 0 0 0 - - -;
#X obj 447 331 random 1;
#X obj 63 142 mrpeach/routeOSC /0 /1 /2 /3 /4 /5 /6;
#X floatatom 318 179 5 0 0 0 - - -;
#X obj 318 228 s pan-spray;
#X obj 318 203 / 100;
#X msg 571 368 clear;
#X obj 446 356 + 1;
#X obj 515 178 makefilename ../granabular/grains/%s.wav;
#X obj 514 130 symbol;
#X msg 515 154 symbol \$1;
#X connect 0 0 1 0;
#X connect 1 0 6 0;
#X connect 1 0 8 0;
#X connect 3 0 5 0;
#X connect 5 0 4 0;
#X connect 6 0 49 0;
#X connect 8 0 2 0;
#X connect 8 0 42 0;
#X connect 9 0 19 0;
#X connect 11 0 20 0;
#X connect 13 0 21 0;
#X connect 14 0 37 0;
#X connect 17 0 22 0;
#X connect 19 0 10 0;
#X connect 20 0 12 0;
#X connect 21 0 15 0;
#X connect 22 0 18 0;
#X connect 23 0 25 0;
#X connect 23 0 38 0;
#X connect 24 0 23 0;
#X connect 26 0 39 0;
#X connect 28 0 29 0;
#X connect 28 0 30 0;
#X connect 28 0 27 0;
#X connect 29 0 36 0;
#X connect 29 0 41 1;
#X connect 30 0 28 1;
#X connect 31 0 28 0;
#X connect 34 0 28 1;
#X connect 35 0 31 0;
#X connect 35 1 36 1;
#X connect 36 0 24 0;
#X connect 37 0 16 0;
#X connect 39 0 41 0;
#X connect 40 0 23 0;
#X connect 41 0 47 0;
#X connect 42 0 3 0;
#X connect 42 1 9 0;
#X connect 42 2 11 0;
#X connect 42 3 13 0;
#X connect 42 4 14 0;
#X connect 42 5 17 0;
#X connect 42 6 43 0;
#X connect 43 0 45 0;
#X connect 45 0 44 0;
#X connect 46 0 23 0;
#X connect 47 0 40 0;
#X connect 48 0 35 0;
#X connect 49 0 50 0;
#X connect 50 0 48 0;
#X connect 50 0 7 0;
