#N canvas 285 118 406 646 12;
#X obj 45 124 openpanel;
#X msg 45 174 read \$1;
#X obj 140 271 textfile;
#X msg 45 238 bang;
#X msg 92 238 rewind;
#X msg 268 539 open;
#X msg 317 561 clear;
#X obj 140 589 cyclone/coll order2;
#C restore;
#N canvas 761 156 618 483 first2values 0;
#X obj 11 12 inlet;
#X msg 105 41 0;
#X obj 104 91 + 1;
#X obj 11 339 outlet;
#X obj 105 12 inlet;
#X text 156 12 this stores the 1st two notes of the MIDI for using
them also as the starting 2 notes of the algorithmic recreation;
#X obj 11 91 f;
#X obj 11 211 symbol;
#X obj 73 211 symbol;
#X obj 11 151 sel 0 1;
#X symbolatom 112 182 10 0 0 0 - - -;
#X obj 11 41 t b f;
#X obj 11 250 pack s s;
#X symbolatom 11 310 10 0 0 0 - - -;
#X obj 112 152 l2s;
#X msg 11 280 symbol \$2_\$1;
#X connect 0 0 11 0;
#X connect 1 0 6 1;
#X connect 2 0 6 1;
#X connect 4 0 1 0;
#X connect 6 0 2 0;
#X connect 6 0 9 0;
#X connect 7 0 12 1;
#X connect 8 0 12 0;
#X connect 9 0 7 0;
#X connect 9 1 8 0;
#X connect 10 0 7 1;
#X connect 10 0 8 1;
#X connect 11 0 6 0;
#X connect 11 1 14 0;
#X connect 12 0 15 0;
#X connect 13 0 3 0;
#X connect 14 0 10 0;
#X connect 15 0 13 0;
#X restore 172 361 pd first2values;
#X obj 274 331 r reset;
#X obj 214 460 r reset;
#X obj 317 539 r reset;
#X obj 140 489 last3values;
#X obj 140 301 drip;
#X msg 77 87 \; reset bang;
#X obj 45 208 t b b a, f 14;
#X obj 45 57 t b b;
#X obj 140 331 t f f;
#X symbolatom 172 391 10 0 0 0 - - -;
#X msg 140 519 merge \$1 \$2;
#X obj 172 420 s first2;
#X obj 45 27 inlet;
#X connect 0 0 1 0;
#X connect 1 0 15 0;
#X connect 2 0 13 0;
#X connect 3 0 2 0;
#X connect 4 0 2 0;
#X connect 5 0 7 0;
#X connect 6 0 7 0;
#X connect 8 0 18 0;
#X connect 9 0 8 1;
#X connect 10 0 12 1;
#X connect 11 0 6 0;
#X connect 12 0 19 0;
#X connect 13 0 17 0;
#X connect 15 0 3 0;
#X connect 15 1 4 0;
#X connect 15 2 2 0;
#X connect 16 0 0 0;
#X connect 16 1 14 0;
#X connect 17 0 12 0;
#X connect 17 1 8 0;
#X connect 18 0 20 0;
#X connect 19 0 7 0;
#X connect 21 0 16 0;
#X coords 0 646 1 645 85 30 0;
