#N canvas 320 100 538 485 10;
#X obj 11 125 list-abs/last-x 3;
#X obj 11 179 unpack 0 0 0, f 31;
#X msg 11 152 \$3 \$2 \$1;
#X obj 11 42 inlet;
#X obj 11 380 outlet;
#X text 12 6 we want to keep the 3 last values and store [n-2_th][n-1_th]
as the key and [n_th] as the value;
#X msg 147 98 0;
#X msg 110 98 3;
#X obj 110 71 t b b;
#X obj 110 44 inlet;
#X text 147 43 empty before start;
#X obj 11 243 pack s s;
#X symbolatom 11 297 10 0 0 0 - - -;
#X obj 11 333 pack s f;
#X obj 11 206 l2s;
#X obj 102 206 l2s;
#X msg 11 270 symbol \$1_\$2;
#X connect 0 0 2 0;
#X connect 1 0 14 0;
#X connect 1 1 15 0;
#X connect 1 2 13 1;
#X connect 2 0 1 0;
#X connect 3 0 0 0;
#X connect 6 0 0 1;
#X connect 7 0 0 1;
#X connect 8 0 7 0;
#X connect 8 1 6 0;
#X connect 9 0 8 0;
#X connect 11 0 16 0;
#X connect 12 0 13 0;
#X connect 13 0 4 0;
#X connect 14 0 11 0;
#X connect 15 0 11 1;
#X connect 16 0 12 0;
