#N canvas 510 303 481 439 12;
#X obj 112 140 moses 10;
#X obj 165 170 moses 100;
#X symbolatom 112 325 10 0 0 0 - - -;
#X obj 292 306 l2s;
#X msg 112 216 symbol 000\$1;
#X msg 165 246 symbol 00\$1;
#X obj 225 200 moses 1000;
#X msg 225 276 symbol 0\$1;
#X obj 112 363 outlet;
#X obj 112 100 inlet;
#X connect 0 0 4 0;
#X connect 0 1 1 0;
#X connect 1 0 5 0;
#X connect 1 1 6 0;
#X connect 2 0 8 0;
#X connect 3 0 2 0;
#X connect 4 0 2 0;
#X connect 5 0 2 0;
#X connect 6 0 7 0;
#X connect 6 1 3 0;
#X connect 7 0 2 0;
#X connect 9 0 0 0;
