#N canvas 840 23 840 1005 12;
#X obj 325 425 tgl 15 0 empty empty empty 17 7 0 10 -262144 -1 -1 0
1;
#X obj 432 502 hradio 27 1 0 8 empty empty empty 0 -8 0 10 -262144
-1 -1 2;
#X floatatom 359 422 5 0 0 0 - - -;
#X text 408 422 b.p.m (freq);
#X text 271 423 on/off;
#X obj 359 397 int 120;
#X obj 359 372 loadbang;
#X obj 431 567 tgl 25 0 empty empty empty 17 7 0 10 -262144 -1 -1 1
1;
#X obj 38 197 catch~ mix;
#X obj 51 243 dac~;
#X obj 458 567 tgl 25 0 empty empty empty 17 7 0 10 -262144 -1 -1 0
2;
#X obj 485 567 tgl 25 0 empty empty empty 17 7 0 10 -262144 -1 -1 3
3;
#X obj 512 567 tgl 25 0 empty empty empty 17 7 0 10 -262144 -1 -1 0
4;
#X obj 539 567 tgl 25 0 empty empty empty 17 7 0 10 -262144 -1 -1 5
5;
#X obj 566 567 tgl 25 0 empty empty empty 17 7 0 10 -262144 -1 -1 0
6;
#X obj 593 567 tgl 25 0 empty empty empty 17 7 0 10 -262144 -1 -1 0
7;
#X obj 620 567 tgl 25 0 empty empty empty 17 7 0 10 -262144 -1 -1 8
8;
#X obj 340 458 step;
#X floatatom 648 575 5 1 9 0 - - -;
#X obj 560 629 instrument bd;
#X text 696 576 kick;
#X obj 436 659 tgl 25 0 empty empty empty 17 7 0 10 -262144 -1 -1 1
1;
#X obj 255 537 + 1;
#X obj 463 659 tgl 25 0 empty empty empty 17 7 0 10 -262144 -1 -1 0
2;
#X obj 490 659 tgl 25 0 empty empty empty 17 7 0 10 -262144 -1 -1 0
3;
#X obj 517 659 tgl 25 0 empty empty empty 17 7 0 10 -262144 -1 -1 4
4;
#X obj 544 659 tgl 25 0 empty empty empty 17 7 0 10 -262144 -1 -1 5
5;
#X obj 571 659 tgl 25 0 empty empty empty 17 7 0 10 -262144 -1 -1 6
6;
#X obj 598 659 tgl 25 0 empty empty empty 17 7 0 10 -262144 -1 -1 0
7;
#X obj 625 659 tgl 25 0 empty empty empty 17 7 0 10 -262144 -1 -1 0
8;
#X floatatom 653 666 5 1 9 0 - - -;
#X text 691 668 snare;
#X obj 565 718 instrument sd;
#X obj 410 689 mselect, f 31;
#X obj 408 598 mselect, f 31;
#X obj 435 747 tgl 25 0 empty empty empty 17 7 0 10 -262144 -1 -1 1
1;
#X obj 462 747 tgl 25 0 empty empty empty 17 7 0 10 -262144 -1 -1 0
2;
#X obj 489 747 tgl 25 0 empty empty empty 17 7 0 10 -262144 -1 -1 0
3;
#X obj 516 747 tgl 25 0 empty empty empty 17 7 0 10 -262144 -1 -1 0
4;
#X obj 543 747 tgl 25 0 empty empty empty 17 7 0 10 -262144 -1 -1 0
5;
#X obj 570 747 tgl 25 0 empty empty empty 17 7 0 10 -262144 -1 -1 0
6;
#X obj 597 747 tgl 25 0 empty empty empty 17 7 0 10 -262144 -1 -1 0
7;
#X obj 624 747 tgl 25 0 empty empty empty 17 7 0 10 -262144 -1 -1 0
8;
#X floatatom 652 754 5 1 4 0 - - -;
#X obj 409 777 mselect, f 31;
#X text 690 756 clap;
#X obj 564 806 instrument cp;
#X obj 441 840 tgl 25 0 empty empty empty 17 7 0 10 -262144 -1 -1 1
1;
#X obj 468 840 tgl 25 0 empty empty empty 17 7 0 10 -262144 -1 -1 0
2;
#X obj 495 840 tgl 25 0 empty empty empty 17 7 0 10 -262144 -1 -1 3
3;
#X obj 522 840 tgl 25 0 empty empty empty 17 7 0 10 -262144 -1 -1 0
4;
#X obj 549 840 tgl 25 0 empty empty empty 17 7 0 10 -262144 -1 -1 5
5;
#X obj 576 840 tgl 25 0 empty empty empty 17 7 0 10 -262144 -1 -1 0
6;
#X obj 603 840 tgl 25 0 empty empty empty 17 7 0 10 -262144 -1 -1 0
7;
#X obj 630 840 tgl 25 0 empty empty empty 17 7 0 10 -262144 -1 -1 0
8;
#X floatatom 658 847 5 1 4 0 - - -;
#X obj 415 870 mselect, f 31;
#X text 696 849 hats;
#X obj 570 899 instrument hh;
#X connect 0 0 17 0;
#X connect 2 0 17 1;
#X connect 5 0 2 0;
#X connect 6 0 5 0;
#X connect 7 0 34 1;
#X connect 8 0 9 0;
#X connect 8 0 9 1;
#X connect 10 0 34 2;
#X connect 11 0 34 3;
#X connect 12 0 34 4;
#X connect 13 0 34 5;
#X connect 14 0 34 6;
#X connect 15 0 34 7;
#X connect 16 0 34 8;
#X connect 17 0 1 0;
#X connect 17 0 22 0;
#X connect 18 0 19 1;
#X connect 21 0 33 1;
#X connect 22 0 33 0;
#X connect 22 0 34 0;
#X connect 22 0 44 0;
#X connect 22 0 56 0;
#X connect 23 0 33 2;
#X connect 24 0 33 3;
#X connect 25 0 33 4;
#X connect 26 0 33 5;
#X connect 27 0 33 6;
#X connect 28 0 33 7;
#X connect 29 0 33 8;
#X connect 30 0 32 1;
#X connect 33 0 32 0;
#X connect 34 0 19 0;
#X connect 35 0 44 1;
#X connect 36 0 44 2;
#X connect 37 0 44 3;
#X connect 38 0 44 4;
#X connect 39 0 44 5;
#X connect 40 0 44 6;
#X connect 41 0 44 7;
#X connect 42 0 44 8;
#X connect 43 0 46 1;
#X connect 44 0 46 0;
#X connect 47 0 56 1;
#X connect 48 0 56 2;
#X connect 49 0 56 3;
#X connect 50 0 56 4;
#X connect 51 0 56 5;
#X connect 52 0 56 6;
#X connect 53 0 56 7;
#X connect 54 0 56 8;
#X connect 55 0 58 1;
#X connect 56 0 58 0;
#X coords 0 1005 1 1004 85 60 0;
