#N canvas 20 129 1042 793 12;
#X obj 202 412 soundfiler;
#X floatatom 202 435 5 0 0 0 - - -;
#X obj 269 436 print;
#N canvas 0 22 450 278 (subpatch) 0;
#X array \$0-array 19770 float 2;
#X coords 0 1 19770 -1 200 140 1 0 0;
#X restore 433 315 graph;
#X obj 37 300 inlet;
#X obj 268 76 inlet;
#X msg 163 210 ./909-samples/;
#X obj 210 388 print;
#X obj 310 235 l2s;
#X msg 310 210 0\$1.wav;
#X obj 208 322 pack s s s f;
#X floatatom 268 102 5 0 0 0 - - -;
#X text 115 100 drum type;
#X text 311 101 drum number;
#X obj 278 164 t b f;
#X obj 274 236 l2s;
#X obj 190 76 loadbang;
#X obj 77 337 f \$0;
#X obj 79 427 tabplay~;
#X msg 77 361 set \$1-array;
#X obj 381 210 f \$0;
#X obj 380 183 loadbang;
#X msg 202 358 read -resize \$1\$2\$3 \$4-array;
#X obj 210 259 print;
#X obj 191 104 symbol \$1;
#X msg 276 211 \$1;
#X obj 285 657 throw~ mixL;
#X obj 381 592 line~;
#X floatatom 380 510 5 0 0 0 - - -;
#X msg 381 569 \$1 20;
#X obj 374 657 throw~ mixR;
#X obj 285 629 *~;
#X obj 381 545 cos;
#X obj 437 544 sin;
#X msg 437 568 \$1 20;
#X obj 437 594 line~;
#X obj 374 630 *~;
#X obj 380 482 inlet;
#X text 510 489 here we use constant power pan-law in order to pan
the mono source from the instrument between the two output channels.
in the main patch \, there is a slider that ranges from 0 to pi/2 connected.
;
#X text 451 47 there is room for improvement here. my algorithm assumes
all samples are between the name range of 0 to 9 \,;
#X text 443 228 NOTE: this part assume that there is a directory containing
the samples in the same directory as the main patch.;
#X text 19 11 there is a single creation argument which is a two letter
symbol to specify the drum type;
#X obj 433 107 loadbang;
#X obj 433 132 int 1;
#X connect 0 0 1 0;
#X connect 0 1 2 0;
#X connect 4 0 17 0;
#X connect 4 0 18 0;
#X connect 5 0 11 0;
#X connect 6 0 10 0;
#X connect 8 0 10 2;
#X connect 9 0 8 0;
#X connect 10 0 22 0;
#X connect 11 0 14 0;
#X connect 14 0 6 0;
#X connect 14 1 9 0;
#X connect 15 0 10 1;
#X connect 16 0 24 0;
#X connect 17 0 19 0;
#X connect 18 0 31 0;
#X connect 18 0 36 0;
#X connect 19 0 18 0;
#X connect 20 0 10 3;
#X connect 21 0 20 0;
#X connect 22 0 7 0;
#X connect 22 0 0 0;
#X connect 24 0 25 0;
#X connect 25 0 15 0;
#X connect 25 0 23 0;
#X connect 27 0 31 1;
#X connect 28 0 32 0;
#X connect 28 0 33 0;
#X connect 29 0 27 0;
#X connect 31 0 26 0;
#X connect 32 0 29 0;
#X connect 33 0 34 0;
#X connect 34 0 35 0;
#X connect 35 0 36 1;
#X connect 36 0 30 0;
#X connect 37 0 28 0;
#X connect 42 0 43 0;
#X connect 43 0 14 0;
