#N canvas 34 303 778 693 12;
#X obj 202 412 soundfiler;
#X floatatom 202 435 5 0 0 0 - - -;
#X obj 269 436 print;
#N canvas 0 22 450 278 (subpatch) 0;
#X array \$0-array 8256 float 2;
#X coords 0 1 8256 -1 200 140 1 0 0;
#X restore 50 496 graph;
#X obj 8 289 inlet;
#X obj 50 443 throw~ mix;
#X obj 268 76 inlet;
#X msg 163 210 ./909-samples/;
#X obj 210 388 print;
#X obj 310 235 l2s;
#X msg 310 210 0\$1.wav;
#X obj 208 322 pack s s s f;
#X floatatom 268 102 5 0 0 0 - - -;
#X text 115 100 drum type;
#X text 311 101 drum number;
#X obj 278 164 t b f;
#X obj 274 236 l2s;
#X obj 190 76 loadbang;
#X obj 48 326 f \$0;
#X obj 50 416 tabplay~;
#X msg 48 350 set \$1-array;
#X obj 381 210 f \$0;
#X obj 380 183 loadbang;
#X msg 202 358 read -resize \$1\$2\$3 \$4-array;
#X obj 210 259 print;
#X obj 191 104 symbol \$1;
#X msg 276 211 \$1;
#X connect 0 0 1 0;
#X connect 0 1 2 0;
#X connect 4 0 18 0;
#X connect 4 0 19 0;
#X connect 6 0 12 0;
#X connect 7 0 11 0;
#X connect 9 0 11 2;
#X connect 10 0 9 0;
#X connect 11 0 23 0;
#X connect 12 0 15 0;
#X connect 15 0 7 0;
#X connect 15 1 10 0;
#X connect 16 0 11 1;
#X connect 17 0 25 0;
#X connect 18 0 20 0;
#X connect 19 0 5 0;
#X connect 20 0 19 0;
#X connect 21 0 11 3;
#X connect 22 0 21 0;
#X connect 23 0 8 0;
#X connect 23 0 0 0;
#X connect 25 0 26 0;
#X connect 26 0 16 0;
#X connect 26 0 24 0;
