#N canvas 38 114 1024 424 12;
#X obj 217 103 sel;
#X obj 252 103 sel;
#X obj 288 103 sel;
#X obj 322 103 sel;
#X obj 357 103 sel;
#X obj 393 103 sel;
#X obj 425 102 sel;
#X obj 460 102 sel;
#X obj 151 41 inlet;
#X obj 197 41 inlet;
#X obj 241 41 inlet;
#X obj 286 41 inlet;
#X obj 328 41 inlet;
#X obj 372 41 inlet;
#X obj 417 41 inlet;
#X obj 462 41 inlet;
#X obj 507 41 inlet;
#X text 147 18 count;
#X obj 342 153 outlet;
#X connect 0 0 18 0;
#X connect 1 0 18 0;
#X connect 2 0 18 0;
#X connect 3 0 18 0;
#X connect 4 0 18 0;
#X connect 5 0 18 0;
#X connect 6 0 18 0;
#X connect 7 0 18 0;
#X connect 8 0 0 0;
#X connect 8 0 1 0;
#X connect 8 0 2 0;
#X connect 8 0 3 0;
#X connect 8 0 4 0;
#X connect 8 0 5 0;
#X connect 8 0 6 0;
#X connect 8 0 7 0;
#X connect 9 0 0 1;
#X connect 10 0 1 1;
#X connect 11 0 2 1;
#X connect 12 0 3 1;
#X connect 13 0 4 1;
#X connect 14 0 5 1;
#X connect 15 0 6 1;
#X connect 16 0 7 1;
