#N canvas 188 220 703 593 12;
#X obj 264 291 int 1;
#X floatatom 264 321 5 0 0 0 - - -;
#X obj 264 352 mod 8;
#X floatatom 264 379 5 0 0 0 - - -;
#X obj 264 266 bng 15 250 50 0 empty empty empty 17 7 0 10 -262144
-1 -1;
#X obj 325 184 /, f 13;
#X floatatom 385 101 5 0 0 0 - - -;
#X msg 325 160 60000;
#X obj 385 127 t b f;
#X floatatom 324 210 5 0 0 0 - - -;
#X text 370 210 ms. (period);
#X text 434 101 b.p.m (freq);
#X obj 312 291 + 1;
#X msg 296 265 0, f 4;
#X text 210 208 on/off;
#X text 306 379 step;
#X obj 264 239 metro 500;
#X obj 385 78 inlet;
#X obj 265 83 inlet;
#X obj 264 481 outlet;
#X text 40 38 This is our simple step sequencer from before we pass
in the toggle and the desired b.p.m. from the main patch. We then want
to feed this output step to the hradio and also to all our our instruments
to trigger them.;
#X connect 0 0 1 0;
#X connect 0 0 12 0;
#X connect 1 0 2 0;
#X connect 2 0 3 0;
#X connect 3 0 19 0;
#X connect 4 0 0 0;
#X connect 5 0 9 0;
#X connect 6 0 8 0;
#X connect 7 0 5 0;
#X connect 8 0 7 0;
#X connect 8 1 5 1;
#X connect 9 0 16 1;
#X connect 12 0 0 1;
#X connect 13 0 0 1;
#X connect 16 0 4 0;
#X connect 17 0 6 0;
#X connect 18 0 16 0;
