#N canvas 180 150 703 593 12;
#X obj 264 290 int 1;
#X floatatom 264 321 5 0 0 0 - - -;
#X obj 264 352 mod 8;
#X floatatom 264 379 5 0 0 0 - - -;
#X obj 264 266 bng 15 250 50 0 empty empty empty 17 7 0 10 -262144
-1 -1;
#X obj 325 184 /, f 13;
#X floatatom 385 101 5 0 0 0 - - -;
#X msg 325 160 60000;
#X obj 385 127 t b f;
#X floatatom 324 210 5 0 0 0 - - -;
#X text 370 210 ms. (period);
#X text 434 101 b.p.m (freq);
#X obj 312 291 + 1;
#X msg 296 265 0, f 4;
#X text 210 208 on/off;
#X obj 512 63 int 120;
#X obj 512 38 loadbang;
#X text 306 379 step;
#X obj 264 239 metro 500;
#X obj 310 53 inlet;
#X obj 266 54 inlet;
#X obj 264 481 outlet;
#X connect 0 0 1 0;
#X connect 0 0 12 0;
#X connect 1 0 2 0;
#X connect 2 0 3 0;
#X connect 3 0 21 0;
#X connect 4 0 0 0;
#X connect 5 0 9 0;
#X connect 6 0 8 0;
#X connect 7 0 5 0;
#X connect 8 0 7 0;
#X connect 8 1 5 1;
#X connect 9 0 18 1;
#X connect 12 0 0 1;
#X connect 13 0 0 1;
#X connect 16 0 15 0;
#X connect 18 0 4 0;
#X connect 19 0 6 0;
#X connect 20 0 18 0;
